<?xml version="1.0" encoding="UTF-8"?>
<svg id="Layer_1" xmlns="http://www.w3.org/2000/svg" viewBox="0 0 221.3 139.18">
  <path d="M62.31,6.86h14l53.35,125.49h-17.37l-12.76-30.84h-62.74l-12.94,30.84H7.01L62.31,6.86ZM69.04,26h-.35l-26.05,61.68h51.22l-24.81-61.68Z"/>
  <path d="M142.77,60.03c4.25-4.37,9.3-7.59,15.15-9.66,5.85-2.07,11.79-3.1,17.81-3.1,12.29,0,21.15,2.9,26.59,8.68,5.43,5.79,8.15,14.59,8.15,26.41v35.62c0,2.37.12,4.82.35,7.36.24,2.54.53,4.87.89,7h-13.29c-.47-1.89-.74-3.99-.8-6.29-.06-2.3-.09-4.34-.09-6.11h-.35c-2.72,4.25-6.35,7.74-10.9,10.46-4.55,2.72-10.01,4.08-16.39,4.08-4.25,0-8.24-.53-11.96-1.6-3.72-1.06-6.97-2.63-9.75-4.7-2.78-2.07-4.99-4.64-6.65-7.71-1.66-3.07-2.48-6.62-2.48-10.63,0-6.85,1.77-12.23,5.32-16.13,3.54-3.9,7.95-6.79,13.2-8.69,5.26-1.89,10.93-3.07,17.01-3.54,6.08-.47,11.67-.71,16.75-.71h5.32v-2.48c0-6.03-1.8-10.57-5.41-13.65-3.61-3.07-8.66-4.61-15.15-4.61-4.49,0-8.89.74-13.2,2.22-4.31,1.48-8.12,3.75-11.43,6.82l-8.68-9.04ZM182.83,92.47c-8.86,0-15.89,1.24-21.09,3.72-5.2,2.48-7.8,6.56-7.8,12.23,0,5.2,1.74,8.89,5.23,11.08,3.48,2.19,7.83,3.28,13.03,3.28,4.02,0,7.53-.68,10.55-2.04,3.01-1.36,5.52-3.16,7.53-5.41,2.01-2.24,3.54-4.87,4.61-7.89,1.06-3.01,1.65-6.23,1.77-9.66v-5.32h-13.82Z"/>
</svg>