<?xml version="1.0" encoding="UTF-8"?>
<svg id="Layer_1" xmlns="http://www.w3.org/2000/svg" viewBox="0 0 236.19 139.18">
  <defs>
    <style>
      .cls-1 {
        font-family: Baskerville-Normal, Baskerville-Normal;
        font-size: 189.26px;
      }
    </style>
  </defs>
  <text class="cls-1" transform="translate(5.55 287.06)"><tspan x="0" y="0">Aa</tspan></text>
  <g>
    <path d="M125.54,114.6c1.77,4.16,3.97,7.26,6.62,9.27,2.65,2.02,6.31,3.09,10.98,3.22v5.87h-52.05v-5.87h6.15c.69,0,1.42-.06,2.18-.19,1.64-.25,3.18-.79,4.64-1.61,1.45-.82,2.18-2.18,2.18-4.07,0-1.13-.16-2.27-.47-3.41-.32-1.14-.73-2.21-1.23-3.22l-10.22-24.41h-50.34l-9.84,24.41c-.38.88-.69,1.74-.95,2.56-.25.82-.38,1.67-.38,2.55,0,2.65.91,4.48,2.74,5.49,1.83,1.01,3.81,1.58,5.96,1.7.5.13,1.01.19,1.51.19h5.49v5.87H4.98v-5.87c5.42-.12,9.68-.98,12.77-2.55,3.09-1.58,5.65-4.89,7.67-9.94L70.84,4.64h7l47.69,109.96ZM74.25,42.11c-.13-.5-.32-1.01-.57-1.51-.25-.5-.44-1.01-.57-1.51-.76-2.02-1.51-4.04-2.27-6.06-.76-2.02-1.39-4.04-1.89-6.06-.13.38-.25.79-.38,1.23-.13.44-.25.85-.38,1.23-.13.38-.25.76-.38,1.14-.13.38-.25.76-.38,1.13l-20.44,50.53h43.72l-16.47-40.12Z"/>
    <path d="M230.57,116.3c-1.26,4.8-3.34,9.08-6.25,12.87-2.9,3.79-7.13,5.68-12.68,5.68-4.29,0-7.79-1.14-10.5-3.41-2.71-2.27-4.38-5.55-5.01-9.84-2.9,3.28-6.5,6.09-10.79,8.42-4.29,2.34-8.64,3.81-13.06,4.45-.63,0-1.26.03-1.89.09-.63.06-1.26.09-1.89.09-5.68,0-10.19-1.8-13.53-5.39-3.34-3.6-5.02-8.17-5.02-13.72,0-9.84,3.15-16.31,9.46-19.4,6.31-3.09,13.31-5.52,21.01-7.29,2.65-.63,5.33-1.29,8.04-1.99,2.71-.69,5.27-1.54,7.67-2.55v-6.43c0-5.55-.79-10.25-2.37-14.1-1.58-3.85-5.71-5.77-12.4-5.77-4.16,0-7.04.98-8.61,2.93-1.58,1.96-2.81,4.07-3.69,6.34-.13.25-.22.47-.28.66-.06.19-.09.41-.09.66-.76,2.02-1.7,3.88-2.84,5.58-1.13,1.7-3.22,2.55-6.25,2.55-.38,0-.76-.03-1.14-.09-.38-.06-.7-.09-.95-.09-1.64-.38-3.09-1.07-4.35-2.08-1.26-1.01-1.89-2.33-1.89-3.97,0-4.42,1.89-7.98,5.68-10.69,3.79-2.71,8.01-4.7,12.68-5.96,2.14-.63,4.29-1.07,6.44-1.32,2.14-.25,4.04-.38,5.68-.38,8.45,0,15.58,1.64,21.39,4.92,5.8,3.28,8.71,9.65,8.71,19.12v42.77c0,.38.06.76.19,1.14.12,1.39.5,2.71,1.14,3.97.63,1.26,1.83,1.96,3.6,2.08,2.4,0,4.13-.82,5.2-2.46,1.07-1.64,1.86-3.47,2.37-5.49,0-.12.03-.22.09-.28.06-.06.09-.16.09-.28.12-.25.22-.47.28-.66.06-.19.09-.41.09-.66h5.68ZM192.53,91.23c-1.26.44-2.59.85-3.97,1.23-.76.25-1.48.47-2.18.66-.7.19-1.42.41-2.18.66-4.54,1.39-8.68,3.22-12.4,5.49-3.72,2.27-5.77,5.93-6.15,10.98,0,3.91,1.2,7.19,3.6,9.84,2.4,2.65,5.61,3.97,9.65,3.97,3.28,0,6.37-.79,9.27-2.37,2.9-1.58,5.55-3.37,7.95-5.39v-26.5c-1.14.51-2.34.98-3.6,1.42Z"/>
  </g>
</svg>