<?xml version="1.0" encoding="UTF-8"?>
<svg id="Layer_1" xmlns="http://www.w3.org/2000/svg" viewBox="0 0 238.51 188.45">
  <path d="M74.17,91.88l-1.39.79c-1.32.4-3.17.79-5.55,1.19l-11.1.59-50.16,4.36c-.4-4.23-.59-8.19-.59-11.9h.99c.79,0,2.28.1,4.46.3,2.18.2,4,.3,5.45.3h3.17c2.64,0,7.37.27,14.18.79,6.81.53,12.32.79,16.56.79,4.63,0,8.72-.06,12.29-.2,3.04.4,6.34.99,9.91,1.78.26.13.86.53,1.78,1.19ZM62.08,98.62c-30.27,8.2-48.71,12.29-55.32,12.29-.79,0-1.19-.59-1.19-1.78v-.59c0-2.11,4.63-4.03,13.88-5.75,7.53-1.45,21.54-3.24,42.03-5.35l.6,1.19ZM58.31,85.54l-1.98,1.19h-.79c-.4.13-.73.2-.99.2-.66,0-1.55-.1-2.68-.3-1.12-.2-1.85-.3-2.18-.3s-11.87-1.78-34.6-5.35c-4.23-.66-6.48-.99-6.74-.99-1.72-.53-2.58-1.45-2.58-2.78,0-1.85.86-2.78,2.58-2.78,1.32,0,5.22.73,11.7,2.18,8.72,1.98,16.52,3.5,23.4,4.56,9.25,1.46,14.21,2.91,14.87,4.36ZM73.97,83.75c-1.72.66-3.31.99-4.76.99-2.12,0-5.55-.92-10.31-2.78-5.95-2.25-10.71-5.02-14.28-8.33-3.57-3.3-7.34-9.78-11.3-19.43-1.46-3.7-2.61-7.8-3.47-12.29-.86-4.49-1.49-7.34-1.88-8.53-2.38-6.21-4.83-10.64-7.34-13.28-3.04-3.3-7.21-5.35-12.49-6.15-1.46-1.06-2.18-2.25-2.18-3.57,0-1.85,1.19-2.78,3.57-2.78,1.19,0,3.04.99,5.55,2.97,4.49,3.17,7.53,5.29,9.12,6.34,2.91,1.72,6.74,7.4,11.5,17.05,4.49-17.97,13.94-27.29,28.35-27.96,2.38-.13,4.29.27,5.75,1.19,1.45.93,2.18,1.92,2.18,2.97s-.79,1.78-2.38,2.18c-1.06-.13-2.31-.26-3.77-.4-1.46-.13-2.38-.2-2.78-.2-4.89,0-9.72,2.05-14.47,6.15-5.55,5.03-8.39,11.24-8.53,18.64-.4.53-.59,1.19-.59,1.98,0,1.72.86,2.58,2.58,2.58.4,0,1.02-.16,1.88-.5.86-.33,1.55-.5,2.08-.5,2.25,0,3.37.86,3.37,2.58,0,.66-.96,2.31-2.88,4.96-1.92,2.65-2.88,5.16-2.88,7.53,0,3.7,1.35,6.31,4.07,7.83,2.71,1.52,4.26,3.14,4.66,4.86.79,3.84,2.78,6.61,5.95,8.33,2.11,1.19,7.27,2.97,15.47,5.35l.2,2.18ZM74.37,100.81c0,1.46-.46,2.58-1.39,3.37-12.29,2.65-18.44,5.95-18.44,9.91,0,.53.59,1.72,1.78,3.57,1.19,1.85,1.78,3.24,1.78,4.16,0,1.59-.93,2.38-2.78,2.38-2.38,0-5.22-1.12-8.53-3.37-1.06.4-2.31,2.38-3.77,5.95,1.98,5.55,2.97,9.12,2.97,10.71,0,.4-1.03,1.06-3.07,1.98-2.05.93-3.07,2.45-3.07,4.56,0,6.61,2.38,13.09,7.14,19.43,3.97,5.42,7.27,8.13,9.91,8.13.66,0,1.88-.3,3.67-.89,1.78-.6,3.14-.89,4.06-.89,2.64,0,4.82.5,6.54,1.49,1.72.99,2.58,2.01,2.58,3.07,0,.79-.4,1.45-1.19,1.98-.79.53-1.92.79-3.37.79h-3.97c-5.95,0-11.77-2.45-17.45-7.34-6.08-5.29-10.77-12.36-14.08-21.22-.53,0-1.46,1.39-2.78,4.16-1.72,3.83-4.3,7.4-7.73,10.71-6.08,5.82-10.97,8.72-14.67,8.72-1.46,0-2.18-1.06-2.18-3.17,0-1.98,1.45-3.44,4.36-4.36,3.83-1.32,5.82-2.05,5.95-2.18,4.89-4.76,8.59-11.1,11.1-19.03,3.3-10.97,5.15-16.79,5.55-17.45,3.57-7,8-12.49,13.28-16.46,3.7-2.78,8.53-5.28,14.47-7.53,4.76-1.85,7.66-2.78,8.72-2.78h3.77c.53.4.79.93.79,1.59Z"/>
  <path d="M234.18,15.35c0,2.25-1.26,3.84-3.77,4.76-3.44,1.06-6.81,2.05-10.11,2.97-5.95,1.85-10.05,5.69-12.29,11.5-2.12,5.29-3.17,13.55-3.17,24.78,0,3.7.63,9.55,1.88,17.55,1.25,8,1.88,14.05,1.88,18.14,0,5.95-.93,13.55-2.78,22.8-2.12,10.58-4.83,19.7-8.13,27.36-5.55,12.69-11.5,22.67-17.84,29.94-5.69,6.34-10.71,9.52-15.07,9.52-2.91,0-5.49-1.49-7.73-4.46-2.25-2.97-3.9-4.46-4.96-4.46-1.46,0-3.04,1.22-4.76,3.67-1.72,2.44-3.97,3.67-6.74,3.67-10.44,0-19.76-7.73-27.96-23.2-5.02-9.52-9.39-23.53-13.09-42.03-1.46-7.27-2.18-13.28-2.18-18.04,0-10.97.26-22.14.79-33.51.53-11.37.79-17.31.79-17.84,0-10.71-2.84-18.11-8.53-22.21-3.04-2.11-6.02-4.23-8.92-6.34-2.38-1.72-3.57-3.1-3.57-4.16s.92-1.59,2.78-1.59c4.89,0,10.28,2.18,16.16,6.54,5.88,4.36,10.21,9.39,12.99,15.07,3.97,8.2,6.54,21.22,7.73,39.06.79,19.56,1.59,39.19,2.38,58.89.79,13.09,2.71,23.06,5.75,29.94,2.78,5.95,6.15,8.92,10.11,8.92,1.45,0,2.18-1.52,2.18-4.56,0,.66-.99-4.3-2.97-14.87-2.38-11.76-4.1-24.85-5.15-39.26l-6.54-91.8c0-9.38,2.18-14.08,6.54-14.08,3.97,0,6.41,4.63,7.34,13.88.26,2.38.4,8.26.4,17.65v17.65c0,36.09,1.26,62.39,3.77,78.91,2.64,17.32,6.94,25.97,12.89,25.97h.59c.26-.13.46-.2.6-.2,1.85-.4,3.7-4.03,5.55-10.9,1.98-7.67,2.97-16.32,2.97-25.97v-42.03c0-7.14.73-19.23,2.18-36.28,1.19-14.01,2.25-23.2,3.17-27.56,1.06-5.95,2.71-8.92,4.96-8.92,1.98,0,3.97,1.26,5.95,3.77,2.11,2.91,3.17,6.34,3.17,10.31,0,.27-.99,8.4-2.97,24.39-2.38,19.56-4.43,39.85-6.15,60.87-.79,9.91-2.11,21.88-3.97,35.89-1.59,11.23-2.38,18.44-2.38,21.61,0,1.98.99,2.97,2.97,2.97,2.91,0,5.75-4.96,8.53-14.87,3.17-11.1,4.76-23.86,4.76-38.27v-31.53c0-11.23,2.11-22.53,6.34-33.9,3.97-10.97,9.12-19.89,15.47-26.77,7.4-8.06,15.79-12.09,25.18-12.09,1.98,0,2.97.93,2.97,2.78ZM157.44,7.22l-.79,147.12c0,2.64-.99,3.97-2.97,3.97-2.78,0-4.23-1.19-4.36-3.57-2.25-32.65-3.37-52.15-3.37-58.49,0-10.84.46-25.38,1.39-43.62.92-18.24,1.39-31.06,1.39-38.46,0-3.83.2-6.41.6-7.73.53-1.85,1.71-2.78,3.57-2.78,1.71,0,3.24,1.19,4.56,3.57Z"/>
</svg>