<?xml version="1.0" encoding="UTF-8"?>
<svg id="Layer_1" xmlns="http://www.w3.org/2000/svg" viewBox="0 0 236.19 139.18">
  <path d="M5.13,130.26v-3.11h35.08v3.11H5.13ZM17.01,130.26L87.32,8.36h14.75l15.07,121.9h-30.69l-9.89-97.1-55.97,97.1h-3.59ZM41.96,92.79v-3.11h52.38v3.11h-52.38ZM68.11,130.26v-3.11h60.27v3.11h-60.27Z"/>
  <path d="M164.02,131.85c-7.49,0-12.89-2.36-16.18-7.1-3.3-4.73-4.94-11-4.94-18.82,0-6.11,1.14-12.16,3.43-18.14,2.28-5.98,5.34-11.41,9.17-16.3,3.83-4.89,8.12-8.81,12.88-11.76,4.76-2.95,9.61-4.42,14.55-4.42,3.03,0,5.62.73,7.77,2.19,2.15,1.46,3.79,3.59,4.9,6.38s1.67,6.13,1.67,10.01c0,2.23-.31,5.2-.92,8.89-.61,3.7-1.51,7.72-2.71,12.08-1.2,4.36-2.72,8.7-4.58,13.03-1.86,4.33-4.01,8.31-6.46,11.92-2.45,3.62-5.22,6.53-8.33,8.73s-6.52,3.31-10.24,3.31ZM172.95,123.8c1.81,0,3.71-1.14,5.7-3.43,1.99-2.29,3.95-5.31,5.86-9.09,1.91-3.77,3.65-7.91,5.22-12.4,1.57-4.49,2.8-8.98,3.71-13.47.9-4.49,1.36-8.6,1.36-12.32,0-2.02-.2-3.76-.6-5.22-.4-1.46-.98-2.59-1.75-3.39-.77-.8-1.74-1.2-2.91-1.2-1.81,0-3.7,1.21-5.66,3.63-1.97,2.42-3.92,5.58-5.86,9.49-1.94,3.91-3.68,8.16-5.22,12.76-1.54,4.6-2.78,9.17-3.71,13.71-.93,4.54-1.4,8.6-1.4,12.16,0,2.6.44,4.72,1.32,6.34.88,1.62,2.19,2.43,3.95,2.43ZM202.45,131.85c-5.42,0-9.38-1.17-11.88-3.51-2.5-2.34-3.75-5.61-3.75-9.81,0-1.06.03-1.99.08-2.79.05-.8.13-1.46.24-1.99l2.55-12.04,4.07-12.83,2.23-13.31,4.46-18.66h25.19l-17.22,64.66c-.21.8-.32,1.59-.32,2.39,0,.53.16,1.01.48,1.43.32.43.85.64,1.59.64,1.22,0,2.74-.61,4.54-1.83,1.81-1.22,3.81-3.4,6.02-6.54,2.21-3.14,4.64-7.63,7.29-13.47l3.03,1.04c-2.71,6.11-5.47,11.13-8.29,15.07-2.82,3.93-5.87,6.84-9.17,8.73-3.3,1.89-7.02,2.83-11.16,2.83Z"/>
</svg>