<?xml version="1.0" encoding="UTF-8"?>
<svg id="Layer_1" xmlns="http://www.w3.org/2000/svg" viewBox="0 0 221.3 127.32">
  <path d="M46.15,7.25h34.03l41.15,113h-36.08l-4.75-16.14h-35.93l-5.06,16.14H4.53L46.15,7.25ZM73.53,79.89l-10.13-34.82h-.32l-10.92,34.82h21.37Z"/>
  <path d="M208.68,101.89c0,6.17.32,13.14,3.8,18.36h-31.97c-.79-2.22-1.27-5.54-1.11-7.75h-.32c-6.65,7.6-16.3,9.81-26.43,9.81-15.83,0-28.96-7.6-28.96-24.85,0-25.96,30.39-25.01,46.37-28.01,4.27-.79,8.55-2.06,8.55-7.28,0-5.54-5.22-7.6-10.29-7.6-9.65,0-11.55,4.91-11.71,8.39h-29.12c.95-23.11,22.79-26.9,42.26-26.9,39.25,0,38.93,16.3,38.93,32.13v33.71ZM178.61,83.37c-3.8,1.9-8.07,3.01-12.34,3.96-6.96,1.58-10.6,3.32-10.6,8.86,0,3.8,4.12,7.6,9.81,7.6,7.12,0,12.66-4.27,13.14-12.82v-7.6Z"/>
</svg>