<?xml version="1.0" encoding="UTF-8"?>
<svg id="Layer_1" xmlns="http://www.w3.org/2000/svg" viewBox="0 0 221.3 127.32">
  <path d="M99.66,121.37l-12.89-38.49h-48.57l-12.89,38.49h-3.8L60.02,6.07h4.96l38.49,115.31h-3.8ZM62.66,10.2h-.5l-22.96,69.38h46.58L62.66,10.2Z"/>
  <path d="M187.05,121.37c-3.2,0-4.79-1.59-4.79-4.79v-7.93h-.5c-2.09,3.96-5.37,7.41-9.83,10.32-4.46,2.92-10.71,4.38-18.75,4.38-9.14,0-16.13-2.01-20.98-6.03-4.85-4.02-7.27-9.83-7.27-17.43,0-3.41.52-6.61,1.57-9.58,1.05-2.97,2.81-5.51,5.29-7.6,2.48-2.09,5.81-3.74,9.99-4.96,4.18-1.21,9.42-1.82,15.69-1.82h24.78v-13.38c0-8.59-2.2-14.95-6.61-19.08-4.41-4.13-10.46-6.19-18.17-6.19-6.06,0-11.46,1.3-16.19,3.88-4.74,2.59-8.32,6.75-10.74,12.47l-2.81-1.65c2.42-5.51,6.08-9.85,10.99-13.05,4.9-3.19,11.15-4.79,18.75-4.79,8.92,0,15.86,2.42,20.81,7.27,4.96,4.85,7.43,11.73,7.43,20.65v56.17h14.04v3.14h-12.72ZM153.19,120.22c3.85,0,7.54-.49,11.07-1.48,3.52-.99,6.61-2.44,9.25-4.36,2.64-1.92,4.76-4.33,6.36-7.24,1.59-2.91,2.4-6.28,2.4-10.12v-17.93h-24.61c-10.46,0-17.9,1.7-22.3,5.1-4.41,3.4-6.61,7.79-6.61,13.16v5.26c0,5.7,2.26,10.07,6.77,13.08,4.51,3.02,10.41,4.52,17.68,4.52Z"/>
</svg>