<?xml version="1.0" encoding="UTF-8"?>
<svg id="Layer_1" xmlns="http://www.w3.org/2000/svg" viewBox="0 0 236.19 139.18">
  <path d="M90.4,132.5l-7.94-30.32h-34.47l-7.76,30.32H12.81L46.91,6.54h38.26l34.11,125.96h-28.87ZM66.04,32.7h-1.45l-12.27,47.65h25.99l-12.27-47.65Z"/>
  <path d="M208.06,132.5c-5.54,0-9.99-1.41-13.36-4.24-3.37-2.82-5.35-6.88-5.95-12.17h-.9c-1.69,6.13-5.02,10.76-10.02,13.89s-11.09,4.69-18.31,4.69c-9.02,0-16.27-2.44-21.75-7.31-5.48-4.88-8.21-11.7-8.21-20.49,0-9.74,3.55-16.96,10.65-21.65,7.09-4.69,17.5-7.03,31.22-7.03h14.97v-4.69c0-5.54-1.29-9.71-3.88-12.54-2.59-2.83-6.95-4.24-13.08-4.24-5.65,0-10.23,1.09-13.72,3.25-3.49,2.17-6.49,5-9.02,8.49l-14.62-13c3.13-5.29,8.03-9.66,14.71-13.08,6.67-3.43,15.25-5.14,25.71-5.14,12.75,0,22.7,2.92,29.86,8.75,7.16,5.84,10.74,14.65,10.74,26.43v40.78h10.28v19.31h-15.33ZM169.62,117.16c4.69,0,8.66-1.14,11.91-3.43,3.25-2.28,4.87-5.6,4.87-9.93v-11.18h-14.25c-10.95,0-16.43,3.67-16.43,11.01v3.61c0,3.25,1.27,5.72,3.8,7.4,2.53,1.69,5.89,2.53,10.1,2.53Z"/>
</svg>