<?xml version="1.0" encoding="UTF-8"?>
<svg id="Layer_1" xmlns="http://www.w3.org/2000/svg" viewBox="0 0 236.19 139.18">
  <path d="M6.28,131.87l1.05-5.62h3.16c2.58,0,4.69-.3,6.33-.89s3.23-1.87,4.75-3.86c1.52-1.99,3.46-4.98,5.8-8.97L89.46,6.31h8.09l17.05,107.8c.82,5.28,1.85,8.62,3.08,10.02,1.24,1.42,3.49,2.12,6.78,2.12h2.81l-1.23,5.62h-40.62l1.23-5.62h4.92c7.38,0,11.08-2.7,11.08-8.09,0-1.17-.06-2.46-.17-3.88-.12-1.4-.24-2.46-.35-3.16l-3.34-22.15h-48.89l-12.31,21.09c-1.17,2.12-2.14,4.16-2.9,6.15-.77,2-1.14,3.58-1.14,4.75,0,2,.7,3.38,2.11,4.14,1.4.76,3.86,1.14,7.38,1.14h5.45l-1.06,5.62H6.28ZM74.16,47.11l-20.4,34.99h43.96l-4.92-33.4c-.7-5.17-1.41-10.4-2.11-15.74s-1.17-10.12-1.41-14.33c-1.87,4.21-4.04,8.64-6.5,13.27-2.46,4.64-5.34,9.7-8.62,15.21Z"/>
  <path d="M164.02,133.63c-7.27,0-12.6-2.82-16-8.44-3.4-5.62-5.1-13.25-5.1-22.85,0-5.51.7-11.32,2.11-17.42s3.52-12.05,6.33-17.85c2.81-5.81,6.24-11.05,10.29-15.74,4.04-4.68,8.7-8.44,13.97-11.25,5.28-2.82,11.14-4.22,17.59-4.22,3.99,0,7.65.62,10.99,1.85s6.13,2.83,8.35,4.84l5.98-4.75h3.87l-12.67,57.5c-.47,2.58-1.05,5.92-1.76,10.03-.7,4.09-1.05,7.44-1.05,10.02,0,6.8,2.11,10.2,6.33,10.2,3.75,0,7.97-1.76,12.66-5.28l2.64,4.22c-2.46,2.35-5.57,4.45-9.32,6.33s-7.44,2.82-11.08,2.82c-8.44,0-12.67-5.17-12.67-15.47,0-2.23.18-4.44.53-6.6.35-2.18.82-4.55,1.41-7.13h-.88c-4.81,10.09-9.94,17.47-15.39,22.15-5.45,4.69-11.16,7.04-17.14,7.04ZM167.71,125.55c3.28,0,6.65-1.33,10.12-3.96,3.46-2.63,6.77-6.18,9.93-10.63,3.16-4.47,5.98-9.45,8.44-14.95s4.34-11.19,5.62-17.06l6.33-29.71c-1.41-2.35-3.43-4.11-6.07-5.28-2.64-1.17-5.48-1.76-8.53-1.76-4.92,0-9.44,1.35-13.54,4.05-4.11,2.69-7.71,6.3-10.82,10.8-3.11,4.52-5.71,9.45-7.82,14.78-2.11,5.34-3.73,10.69-4.84,16.09-1.12,5.4-1.67,10.32-1.67,14.77,0,8.33,1.2,14.23,3.61,17.67,2.4,3.46,5.48,5.19,9.23,5.19Z"/>
</svg>