<?xml version="1.0" encoding="UTF-8"?>
<svg id="Layer_1" xmlns="http://www.w3.org/2000/svg" viewBox="0 0 221.3 127.32">
  <defs>
    <style>
      .cls-1 {
        font-family: SFCompactRounded-Medium, 'SF Compact Rounded';
        font-size: 177.44px;
        font-weight: 500;
      }
    </style>
  </defs>
  <text class="cls-1" transform="translate(11.25 269.44)"><tspan x="0" y="0">Aa</tspan></text>
  <g>
    <path d="M15.5,115.89c0-2.08.52-4.33,1.65-7.62L49.63,16.35c3.03-8.66,7.28-12.48,15.16-12.48s12.13,3.73,15.08,12.48l32.49,91.92c.95,2.86,1.47,5.2,1.47,7.36,0,5.2-3.73,8.49-9.36,8.49-5.29,0-8.4-2.69-10.4-9.36l-8.14-24.43h-42.8l-8.14,24.43c-2.08,6.76-5.03,9.36-10.31,9.36s-9.18-3.21-9.18-8.23ZM81.26,75.26l-16.2-49.99h-.95l-16.29,49.99h33.44Z"/>
    <path d="M155.25,124.39c-17.85,0-29.89-11.26-29.89-27.9s12.3-27.2,32.75-27.29h22.87v-8.14c0-10.31-6.32-15.68-18.02-15.68-7.28,0-12.3,2.6-17.59,7.97-2.34,2.25-4.59,3.12-7.88,3.12-4.25,0-7.02-2.86-7.02-7.02,0-5.29,3.64-10.48,11.35-14.64,5.54-3.03,12.82-4.68,22.35-4.68,23.13,0,36.04,11.09,36.04,31.02v52.42c0,6.58-3.38,10.4-9.36,10.4-5.28,0-8.66-3.21-9.1-8.66v-4.07h-.95c-5.03,8.49-14.21,13.17-25.56,13.17ZM161.22,109.74c11.18,0,19.75-7.62,19.75-17.5v-9.88h-20.19c-10.22,0-16.12,4.77-16.12,13.17s6.67,14.21,16.55,14.21Z"/>
  </g>
</svg>