<?xml version="1.0" encoding="UTF-8"?>
<svg id="Layer_1" xmlns="http://www.w3.org/2000/svg" viewBox="0 0 378.68 180.06">
  <g>
    <path d="M86.64,123.07c-.25-.72-.44-1.45-.62-2.19-.87.56-1.64.55-2.45.07-.03.02-.06.03-.08.05,0,0,0,0,0,0-.6.52-1.17,1.05-1.65,1.66-.24.3-.46.62-.65.97-.35,1.13-1.29,1.74-2.4,2.07-.37.11-.76.19-1.15.26,1.74-2.07-4.18,3.37-1.68-.6.17-.26.32-.5.5-.73.37-.45.89-.82,1.94-1.05.25-.25.49-.5.73-.76.72-.78,1.4-1.58,2.15-2.32q1.05-1.03,2.22.51s.04-.03.05-.05l-.05.05s.05-.05.06-.06c0,0,.02,0,.03.01.71-.42,1.46-.61,2.42-.23-.34-1.5-.52-3.03-.46-4.6.13-3.19.19-6.39.61-9.53-.08,0-.15,0-.23,0,.08-.06.17-.09.25-.13.37-2.74,1.01-5.43,2.23-8.01.11-.23.19-.49.22-.75.26-1.87.68-3.71,1.14-5.53-.05,0-.1,0-.15,0-1.61.39-3.2-.44-4.43-1.69.79-1.21,1.72-.83,2.64-.46.63.25,1.14.67,1.95.64.13,0,.25-.01.38-.03.41-1.58.83-3.15,1.19-4.74.17-.76.34-1.54.62-2.26.29-.73.75-1.48,1.54-1.56,2.17-.21,4.13-1.28,6.5-1.01,2.33.27,4.61.33,6.81,1.36.89.42,1.91.52,2.86.81.74.23,1.52.38,2.14-.1,1.05-.81,2.07-.61,3.15-.18.06.02.12.04.19.06.18-.37.36-.73.53-1.1.16-.33.61-.38.95-.32,1.32.23,1.48-.72,1.7-1.85-.06,1.35,1.1,2.06,1.65,3.02.9-.34,1.75-.72,2.57-1.3.29-.21.59-.41.88-.61s.59-.4.89-.6c.56-.49,1.24-.75,1.95-.92.35-.08.71-.15,1.06-.21,2.36.02,2.26-2.03,2.21-3.06-1.03.05-3.08.15-4.33.53-.45.04-.9.11-1.35.17-1.35.2-2.7.37-4.05.53-1,.12-1.95.21-2.91-.2-3.66-1.55-7.34-3.05-10.99-4.63-1.62-.7-3.18-1.44-5-.94-.43.12-1,0-1.43-.2-.3-.14-.61-.31-.91-.46.27.49-.28.95-.19,1.42-.2-.52-.53-1.07-.09-1.56-1.02-.52-2.05-1.06-3.14-1.63,1.46-2.6,2.95-4.98,3.47-7.9.25-1.43,1.33-2.49,2.36-3.44.74-.69,1.58-1.26,2.01-2.26.29-.66.61-1.29.95-1.92-.02,0-.04,0-.06,0-.44,0-.88-.26-.64-.86.2-.5.65-.55,1.11-.51.11,0,.21.04.32.05.99-1.74,2.01-3.45,2.65-5.4.4-1.21,1.14-2,2.22-2.34-.07-.7.19-1.4.83-1.98.38-.35.89-.56,1.37-.79.55-.26.99-.52,1.37-.78.39-.75.84-1.44,1.34-2.06.05-.76-.21-1.67-.76-2.85-.16-.34-.06-.5.12-.67.35-.32.78-.39,1.23-.23-.4.97,1.54,1.09.89,2.22.48-.41,1-.78,1.55-1.11-.05-.02-.09-.04-.14-.07.28-.15.52-.24.76-.31.9-.48,1.89-.86,2.95-1.16,2.04-.57,3.84-.53,5.64.74,3.06,2.15,6.41,3.74,9.61,5.6,1.35.78,2.8.99,4.26.21,1-.53,1.46-1.5,1-2.61-.45-1.08-1.1-2.06-1.59-3.12-2.14-4.65-5.74-7.42-9.72-9.72-.08.22-.13.47-.45.43-.13-.02-.26-.4-.3-.64-.01-.08,0-.15,0-.21-.77-.43-1.56-.85-2.35-1.26-.95-.5-2.24.13-3.03-.98.74-1.54,2.16-.67,3.24-1.01.12-.04.27-.03.35-.11,1.74-1.76,4.33-2.01,6.03-3.64,1.96-1.87,4.54-2.58,6.45-4.47.86-.85,2.01-.77,3.14-.24,2.6,1.22,5.21,2.35,8.02,2.96,1.89.41,3.3,1.64,3.76,3.88.26,1.27.62,2.65,1.34,3.64,1.5,2.05,3.48,3.67,4.7,6,.21.4.78.61,1.21.87.75.45,1.55.81,2.26,1.31,1.31.9,2.7,1.26,4.2.83.97-.28,1.98-.54,2.91-.21,2.8.98,5.79,1.73,7.44,4.72,1.27,2.3,3.42,4.17,3.18,7.27-.06.78.7,1.32,1.38,1.72,1.17.69,1.84.49,2.27-.77.3-.86.57-1.73.87-2.59.86-2.5.66-4.83-.71-7.14-1.68-2.83-3.7-5.27-6.29-7.16-.81-.59-1.79-.97-2.29-1.96-1.14-2.28-3.13-3.63-4.83-5.34-1.68-1.68-2.5-4.16-4.04-6.1-2.68-3.36-6.12-5.7-9.27-8.44-1.08-.94-2.39-1.34-3.7-1.75-2.37-.74-4.72-1.54-7.02-2.51-1.58-.67-3.32-1.09-5.02-1.22-1.35-.1-2.7-.07-4.01-.47-1.85-.57-3.75-.33-5.45.29-1.96.71-3.79,1.73-5.93,1.87-.55.04-1.24.48-1.57.96-1.51,2.19-3.83,2.72-6.03,3.47-1.89.64-3.67,1.38-5.26,2.73-2.01,1.7-4.27,3.08-6.29,4.78-2.5,2.11-5.03,4.27-5.52,8.02-.06.48-.4.97-.72,1.35-1.56,1.86-2.76,4-4.2,5.95-3.19,4.31-6.17,8.69-8.38,13.74-1.64,3.74-3.31,7.4-4.1,11.45.24-.1.5-.21.79-.34-.28.6-.6.94-.95,1.18-.43,2.35-1.23,4.62-.76,7.13.18.98.01,2.16-.35,3.09-.57,1.46-.9,3.33-2.16,4.2-.2,1.03-.89,1.44-2.27,1.42-.74.61-1.45,1.22-2.38,1.33-1.27.14-2.58-.03-3.88-.19-.02,0-.03.02-.05.03,0-.01,0-.02,0-.03-.29-.03-.57-.07-.86-.1-1.47-.15-2.97-.68-4.4-.53-3.16.33-5.42-.73-6.91-3.81-.53-1.08-1.71-1.52-2.85-1.61-.59-.05-1.27.04-1.77.33-1.09.63-1.96,1.57-2.66,2.66-.11.17-.18.37-.22.57.23.46.51.89.89,1.24-.04.21-.11.35-.18.45.64.86,1.25,1.73,1.19,3.01-.07,1.44,1.15,2.49,1.15,4.06,0,1.67.8,2.31,2.46,2.19,2.72-.2,5.29,1.29,8.04.71.42-.09.94.26,1.4.44,1.28.51,2.56.94,3.96.84.28-.02.56,0,.82.06,1.21-2.67,3.11-3.4,6.05-2.79-1.3,1.08-3.21,1.01-3.91,2.65-.13.3-.46.52-.62.8.25.15.5.31.75.46,1.07.67,1.53,1.69,1.27,3.01-.16.81-.34,1.62-.51,2.43.96-1.12,1.92-1.23,4.62-1.26,1.14-.01,1.71-1.17,2.79-1,.02-.02.03-.03.05-.05,0,0,0,0,0,0,.02-.01.03-.02.05-.03-.31-.95-.52-1.9.1-2.83.21.95,1.56,1.95-.1,2.83.01.03.02.06.03.1-.05-.01-.09,0-.13-.01-.79.76-1.44,1.54-2.77,1.69-1.7.18-3.1,1.26-3.97,2.84-.25.46-.37,1.01-.87,1.31-.18.11-.37.23-.56.3-.13.65-.28,1.29-.45,1.92.35-.18.73-.32.95-.6.59-.75,1.23-.17,1.83.23,2.22,1.51,2.36,2.62.58,5.1,0,.02.02.05.02.07.68-.18,1.38-.33,2.63,0-1.28.39-2.08,1.55-2.63,0-.03,0-.05.01-.08.02,0,0,.01-.22.01-.22-1.13.68-2.3,1.3-3.37,2.06-.69.49-1.27.43-1.86-.02-.08.34-.16.69-.23,1.03-.79,3.97-2.21,7.73-3.03,11.69-.41,2-.81,3.97-1.05,5.96,1.08.32,2.11.24,3.1.37,0-.02,0-.03,0-.05l.05.05s-.05-.05-.05-.05c.02,0,.04,0,.06,0,.13-1.18.93-1.1,1.92-1.03-.52.84-1.17,1.04-1.92,1.03,0,.02,0,.03,0,.05-.02,0-.03,0-.05,0,.11.83-.49,1.25-1.03,1.66-1.49,1.12-2.1,1.84-2.04,2.94.01.28.07.58.17.92-.81,1.66-.71,3.72-1.4,4.34-.13.27-.26.55-.38.83s-.24.56-.36.84c.15.01.27.01.33-.08.36-.5.75-.82,1.19-1,1.53-.13,2.88-.24,4.14-.23.42,0,.83.02,1.24.05.48-.06.92-.04,1.33.03s.78.2,1.14.37c.42.19.77.44,1.08.71.31.27.57.57.82.87.18.41.44.7.75.93.01,1.72,2.99-.49,3.09,1.57-.06-1.23.44-2.31,1.14-3.34.24-.33.5-.67.77-.98,2.93-2.1,4.78-6.31,1.92-8.86-.09-.28-.19-.56-.29-.84ZM110.34,79.88c.55-.02,1.04.28,1.16.84.12.55-.38.7-.81.87-.52-.14-.87-.54-.98-1.02-.08-.33.3-.69.63-.7ZM133.74,33.36c.25.04.48.17.51.48-.13.06-.28.18-.43.17-.27,0-.52-.13-.47-.45.01-.09.27-.22.39-.2ZM130.36,35.24c-.1.1-.2.28-.3.28-.32-.01-.7-.02-.86-.37-.07-.15.08-.28.29-.25.31.04.68-.04.87.34ZM127.24,30.53c.06-.11.13-.22.21-.32.38-.49.85-1.89,1.68-.72-.88,2.19-1.71,2.26-3.12,3.55.77-.7.79-1.7,1.23-2.51ZM172.78,30.63c.2-.18.56-.13.69.13.43.82.22,1.51-.51,2.06-.74-.71-1.06-1.43-.18-2.19ZM166.24,26.5c.08-.05.4.06.43.16.25.72-.25,1.06-.92,1.47-.35-.82-.04-1.28.49-1.63ZM147.3,10.81c.05-.11.36-.23.44-.17.53.36.31.94.33,1.44,0,.08-.08.16-.22.42-.2-.3-.27-.36-.29-.44-.12-.41-.47-.79-.27-1.24ZM143.18,6.45c.25.03.48.12.56.4-.03.2-.16.28-.35.18-.15-.07-.29-.18-.39-.31-.14-.18-.06-.3.18-.28ZM131.93,16.24c.29.14.22.42.21.64,0,.22.08.57-.34.47-.08-.02-.1-.29-.16-.51.08-.17.19-.39.29-.6ZM111.73,29.55c.4-.71,1.06,0,2.08.27-1,.68-1.17,1.51-1.55,2.38-.95-.84-1-1.82-.52-2.65ZM109.63,33.53c.6-.1,1.18-.07,1.65.36.05.05-.04.38-.15.45-.78.47-1.14-.28-1.78-.4.18-.28.22-.4.27-.41ZM105.88,43.56c-1.02-.24-1.62-.51-2.06-1.4,1.15-.14,1.57.39,2.06,1.4ZM99.19,40.11c.12.14.28.29.4.48.11.17,0,.38-.14.32-.2-.09-.36-.28-.5-.47-.12-.16-.04-.29.24-.33ZM98.79,49.85c.1-.35.38-.67.78-.51.8.34,1.72.65,1.83,1.68.04.4-.3.82-.84.84-.65-.06-1.92-1.46-1.76-2.01ZM97.29,33.92c.42.01.52.38.62.7-.01.48-.16.87-.71.86-.42,0-.59-.32-.58-.69,0-.44.1-.89.68-.87ZM102.45,78.83c.28-.64.91-.74,1.54-.47.67.29.72,1.47,1.77,1.25,0,0,0,0,0,0,0,0,0,0,0,.01.66.83,1.62.28,2.4.51.24.07.54.08.57.42.04.4-.19.63-.54.77-1.49.58-2.16.12-2.44-1.69,0,0,0,0,0,0h0s0,0,0,0h0c-.79.37-1.59.71-2.45.17-.38-.24-1.2-.18-.86-.95ZM96.75,74.31c0,.85-.47,1.07-1.09,1.25-.12-1.17.81-.77,1.09-1.25ZM92.59,48.58c.12-.33.42-.57.83-.39.32.14.65.3.54.88-.07.26-.35.5-.72.44-.47-.08-.83-.39-.64-.92ZM94.89,77.57c2.01-.24,3.89-1.23,5.97-1.22.43,0,.94-.23,1.11.36.15.51-.3.77-.64,1.05-.55.46-1.12.95-1.9.82-2.15-.35-3.75.65-5.11,2.16-.79-.43-.94-1.33-1.76-1.53.59-.93,1.14-1.5,2.32-1.64ZM88.65,64.19c.73.28.82.84.73,1.56-.5-.45-.81-.91-.73-1.56ZM89.74,81.72c.41-.42.72-1,1.41-1.13.4.55.03,1.18.21,1.76.13.42.21.91-.43,1.01-.47.08-.85-.14-1.17-.48-.36-.39-.38-.8-.02-1.16ZM87.49,75.87c.55.16.89.95.77,1.04-.5.36-.66-.22-.84-.57-.06-.11.04-.3.07-.47ZM60.92,77.26c-.18.11-.45.36-.76.45-.18.06-.28-.21-.11-.37.25-.23.53-.46.83-.59.14-.06.22.18.04.51ZM66.33,76.7c-.31-.11-.67-.2-.8-.57-.07-.2.02-.32.6-.35.03.05.24.33.4.63.1.19-.01.36-.2.29ZM75.21,76.56c-.08.07-.39.05-.44-.02-.51-.8-.87-1.62-.14-2.44.46.07.62.28.62.54,0,.64.64,1.31-.04,1.92ZM84.05,78.77c.1-.86.18-1.61.28-2.47,1.25.1,1.1,2.19,2.54,2-.91.15-1.83.31-2.81.47ZM83.97,115.18c-.83,1.56-2.57.84-3.65,1.56.62-1.72,1.89-2.04,3.65-1.56ZM76.77,103.66c.33-.25.74-.58,1.05-.07.19.31-.1.65-.38.86-.33.24-.66.55-1.29.34-.07-.63.29-.88.63-1.13Z"/>
    <path d="M81.72,135.96q-.73.2-2.17.52c-.29.15-.56.35-.82.66s-.49.7-.72,1.23c.98-1.08.93-2.11-.09-2.59-.2-.3-.4-.58-.52-.84-.12-.26-.18-.48-.1-.66-.31-.17-.73-.21-1.18-.17-.9.07-1.91.42-2.41.53-.38.13-.75.26-1.12.39-1.1.37-2.12.6-2.88,0-.27,0-.55.04-.81.13-.53.18-.83-.24-1.2-.58-.8,1.96-1.47,3.97-1.98,6.05-.31,1.29-.89,2.43-1.7,3.45-3.1,3.86-5.75,8.18-10.11,10.7-.42.24-.81.63-1.09,1.05-.05.07-.1.13-.15.2.77.21,1.14.82,1.48,1.43.17.29.29.74,0,.97-.58.44-.63-.18-.85-.5-.83-1.22-.88.76-1.58.35-.07-.49,0-.95.17-1.39-1.02.85-2.28,1.11-3.62.95-3.18-.39-6.39-.77-9.5-1.56-2.78-.71-5.41-2.2-7.06-4.76-.75-1.17-1.38-2.41-1.82-3.71-.12.06-.26.1-.41.13-.44.07-.74-.12-.69-.53.11-.86-.38-1.7.49-2.49-.06-.86-.03-1.75.13-2.67.24-1.32.24-2.62-.48-3.81-.59-.97-.59-1.95-.24-3.01.16-.46.24-1.07.09-1.52-.74-2.24-1.63-4.43-3.45-5.97-.58-.49-1.19-1.22-1.84-1.29-1.86-.21-3.44-1.12-5.13-1.81-1.35-.55-2.63.2-3.39,1.6-.18.34-.39.69-.48,1.06-.68,2.99-2.69,4.48-5.23,5.51-.93.38-1.86.63-2.81.87-2.14.53-3.71,1.98-5.04,3.76-.4.53-.55,1.17-.32,1.85.21.61.39,1.24.65,1.83.53,1.21.88,2.31-.42,3.28-.4.3-.28.98.1,1.41.48.54,1.07.65,1.64.18.68-.55,1.29-1.23,2.01-1.71,1.04-.69,2.14-1.26,3.47-1.03,1.07.19,1.34.5,1.19,1.79-.2,1.78.24,2.69,1.68,3.44.67.35,1.64-.08,1.76-.86.1-.63-.01-1.3.05-1.94.11-1.1.78-1.8,1.69-1.63,1.94.35,3.75.87,5.4,2.31,3.05,2.66,5.2,5.96,6.96,9.63.29.59.63,1.14.24,1.82-.85,1.46.04,2.37.88,3.29,1.84-.03,3.25,1.04,4.61,2.17,1.55,1.29,3.08,2.61,4.51,4.05.44.45.9.76,1.4.97-.27-.36-.55-.76-.84-1.23.74.46,1.43.97,2.07,1.53.93.06,1.87.13,2.8.19-.23-.26-.49-.49-.67-.78-.24-.38-.21-.85.31-.85.6,0,1.31.03,1.8.35,1.78,1.16,3.68,1.43,5.69,1.26,1.04-.09,1.93.24,2.7,1.02,1.31,1.35,2.91,1.4,4.5.91,2.11-.65,4.34-.97,6.15-2.51,1.01-.86,2.07-.58,2.98.37l.04-.09c.92-1.21,1.77-2.36,3.18-3.15,3.41-1.91,6.19-4.69,8.42-8.04.42-.63.94-1.34,1-2.05.26-2.98.86-5.86,1.95-8.61.05-.12.02-.26.06-.39.15-.52.29-1.04.43-1.55s.29-1.04.45-1.55c-.35-.99.22-2.03.86-3.09.21-.36.44-.71.64-1.09,1.7-2.11.67-2.06-1.51-1.95-.17-.16-.22-.54-.22-1.18ZM20.85,145.66c.22-.56.63-.83,1.21-.88q-.34.73-1.21.88ZM21.19,134.08c-.18-.02-.43-.3-.48-.51-.14-.54.19-.77.7-.79.31.09.76.13.67.57-.08.42-.41.78-.9.72ZM40.1,165.92c-.33-.08-.64-.21-.69-.59-.03-.21.12-.33.26-.25.21.12.4.29.56.47.15.17.08.32-.13.37ZM48.17,166.38c-1,.93-2.02.35-2.92-.15-.67-.38-1.2-1.03-1.76-1.59-.37-.37-.67-.81-1.19-1.44,2.04-1.05,3.43-2.3,3.56-4.62.88,1.68,1.46,3.39,3.11,4.4.51.31-.12,2.76-.81,3.4ZM67.34,138.42c1.23-.51,2.48-.87,4.06-.8-3.14.64-4.62.83-3.18,4.55-1.37-.31-1.38-1.31-1.69-2.1-.33-.84.06-1.33.82-1.65ZM58.64,161.23c-.44-.11-.86-.36-.87-.84,0-.36.36-.65.72-.62.58.06.75.61,1.04.92-.21.52-.53.63-.89.54ZM60.49,159.25c-.08.1-.41.15-.45.1-.36-.51-.04-.96.26-1.56.46.65.5,1.07.19,1.46ZM72.03,152.66c-.28.84-.54,1.35-1.64,1.22-1.35-.16-2.75-.57-4.07-.09-.33,1.22.98,1.51,1.1,2.64-1.09-.45-2.1-.93-3.19-.12-.41.31-1.21.21-1.81.14-1.17-.14-1.77-.98-1.32-2.06.61-1.47,1.4-2.92,3.18-3.28.71-.14,1.33-.41,1.95-.78,1.02-.6,1.95-1.17,1.79-2.61-.06-.59.14-1.24.84-1.48.43-.03.39.29.41.53.15,1.66.52,3.16,2.27,3.9,1.02.43.76,1.18.49,2ZM73.04,158.86c1.14.34,1.96.58,2.82.84-1.47,1.66-1.7,1.6-2.82-.84Z"/>
  </g>
  <g>
    <path d="M238.76,154.29c.41.28.77.8,1.2.88,1.18.22,2.49,1.37,3.47.64,1.34-1,2.35.42,3.44-.04.43-.18.72-.68,1.08-1.04l-.08.08c.03-.3.19-.67.06-.89-.64-1.14-1.02-2.4-1.55-3.58-.98-2.19-2.6-3.92-5.34-3.77-1.05.06-1.99-.18-2.92-.66-3.07-1.58-6.4-1.83-9.77-1.85-1.47,0-2.78.35-3.93,1.36-1.15,1.01-2.48,1.76-4.03,2.06-.49.09-1.04.25-1.39.57-.74.67-1.41.55-2.23.21-1.13-.47-2.28-.82-3.43.14-.35.3-.74-.12-.85-.55-.4-1.57-.86-3.14-1.16-4.73-.55-2.87-1.36-5.73-.58-8.7.07-.28.05-.62-.02-.91-.21-.97.14-1.79.6-2.61.52-.92-.73-1.67-.29-2.61.13-.27.12-.63.29-.86.67-.93.37-1.7-.29-2.47-.28-.33-.36-.73-.07-1.12.85-1.13,1.03-2.4,1.03-3.68-.28.14-.63.16-1.07.01,0,.01,0,.03.02.04.53.45.95.96.79,1.79-.97-.34-.5-1.23-.79-1.79-.02-.02-.04-.03-.05-.05h.02c.03-.63-.16-1.28-.75-1.43-1.2-.33-1.39-.99-.96-2.02.78-1.86.55-3.5-.98-4.93-.39-.36-.9-.85-.5-1.5.42-.68,1.26-.73,1.92-1.02.32-.14.75.34.63.82-.1.38-.36.72-.56,1.08-.3.55-.47,1.04.31,1.39,1.01.45,1.31,1.39,1.59,2.36.1.34.14.67.35.97.12-1.83.45-3.62.89-5.42.21-.84.4-1.56,1.27-1.91.31-.13.52-.47.31-.72-.83-.96-.25-1.93-.1-2.89.36-2.29.75-4.59.61-6.92-.07-1.06.1-2.05.56-2.95,1.05-2.05,1.4-4.18,1.12-6.46-.11-.93.09-1.88.7-2.58.72-.83,1.01-1.7.91-2.78-.04-.41.28-.8.74-.83,1.79-.11,3.61-.43,5.36-.2,0-.17.03-.35.13-.54.14-.28.31-.55.69-.56.41.13.39.49.37.79-.01.19.06.39.1.59.46.15.92.33,1.36.61,2.59,1.6,5.42,1.52,8.26,1.49,1.08-.01,2.09-.39,2.6-1.34.81-1.48,2.06-2.47,3.29-3.53,1.09-.95,1.5-3.84.81-5.09-.14-.26-.31-.58-.56-.71-1.16-.61-2.33-1.2-3.54-1.69-.29-.12-.83.06-1.12.28-.96.72-1.94,1.02-3.14.72-.47-.11-1.03-.05-1.5.09-1.52.48-2.75.06-3.94-.93-.84-.7-.91-.61-1.71.22-1.93,2.01-3.45,2.25-5.44.67-1.17-.93-2.39-1.48-3.88-1.52-.59-.02-1.21-.2-1.75-.45-1.16-.54-1.41-1.6-.61-2.71.3-.42.58-.75.56-1.32-.03-.91.12-1.82.12-2.73,0-2.45-.18-4.9-1.05-7.19-.45-1.19-1.42-2.2-2.23-3.24-.47-.6-.67-1.33-.92-2.03-.29.39-.62.74-1.08,1,.13-.69.46-1.25.69-1.86-.12-.21-.26-.41-.45-.6-.81-.8-1.41-1.71-1.67-2.85-.24-1.04-.99-1.77-1.76-2.42-.72-.62-1.55-.94-2.54-.54-1.52.62-3.11.91-4.76.91-.65,0-1.17.66-.94,1.28.45,1.22.26,2.3-.12,3.51-.98,3.12-.25,4.89,2.52,6.68.42.27.92.43,1.36.68,1.07.62,2.11,1.34,2.64,2.47.9,1.91,1.79,3.85,2.44,5.86.56,1.73.78,3.57,1.16,5.36,0,0,0,0,0,.01.27.16.57.3.93.37-.33.04-.63.05-.9.04-.04.36-.24.64-.61.83-.45.22-.92.46-1.4.56-.1.02-.19.04-.29.06.13.51.15,1.01-.54,1.6-.53.46-.93,1.75.08,2.83.64.68.79,1.9.32,2.97-.71-.22-.85-.63-.74-1.18.16-.77-.14-1.44-.5-2.09-.76-1.38-.83-2.57-.13-3.82-2.08.43-4.16.86-6.25,1.22-1.05.18-1.97.44-2.65,1.3-.8.99-1.91,1.49-3.06,1.92-1.62.6-3.24,1.2-4.84,1.86-1.05.43-1.84.34-2.74-.49-.95-.88-1.91-1.13-2.7-.65.25,1.18.87,1.89,2.05,2.06.64.09.84.32.7.97-.12.55.05,1.08.76.76.83-.37,1,.08,1.15.71.17.74.77.82,1.35.76.6-.06.78-.54.74-1.08-.07-1.04.79-1.5,1.13-2.29.78.48.62,1.05.36,1.37-1.33,1.61-.78,3.12.07,4.65.03,0,.06,0,.09,0l-.02.02s.02-.02.02-.02c0,.01.01.02.02.03,1.36-.55,1.36-.58,1.25-2.13.73-.14.71.83,1.46.88.43-.02.36-.5.44-.88.09-.41.16-.84.69-.86.34-.01.75.13.6.52-.05.15-.02.32.02.5.78-.53,1.57-1.06,2.11-1.91.46-.72,1.24-1.03,2.13-.94,1.24.12,2.39.05,3.48-.71.54-.38,1.19.03,1.38.74.1.39.05.81.13,1.21.12.64.57.9,1.09.43,1.27-1.15,2.45-.58,3.65.02.97.49,1.37,1.35.79,2.26-1.48,2.31-1.44,4.88-1.11,7.35.35,2.55-.03,4.94-.57,7.36.06.1.11.18.17.3.43-.19.6-.57.56-.99-.04-.44-.1-.97.5-.81,1.34.35,2.33-.34,3.4-.9.28-.15.66-.22.91.05.32.34.3.9.03,1.13-1.2,1.03-2.77,1.58-3.79,2.85-.85-1.4-1.12.75-1.8.3-.12-.08-.23-.16-.35-.24-.23,1.08-.46,2.15-.65,3.24-.43,2.38-.95,4.77-2.08,6.97-.55,1.07-1.28,2.3-1.19,3.39.09,1.1-.3,1.92-.63,2.79.12.05.24.11.35.19.26.17.36.55.24.89-.2.59-.72.9-1.22.84-.55,1.67-1.15,3.32-1.33,5.15-.36,3.73-1.28,7.4-3.48,10.57-.36.51-.66,1.09-.55,1.7.27,1.39.56,2.78.98,4.13.2.65.64,1.34,1.44,1.45.84.12,1.03.53.75,1.24-.33.86-.09,1.73.41,2.31,1.94,2.24,2.62,5.3,4.87,7.32.64.57.64,1.21.05,1.86-.27.3-.48.65-.67,1.01-.07.14-.05.42.05.53.08.09.39.08.5,0,.71-.53,1.04-1.73,2.07-1.61.87.1,1.69.63,2.52,1.01,1.21.56,2.33,1.28,3.13,2.37.45.62,1.04.93,1.71,1.19,2.69,1.04,5.39,1.36,8.25.54,1.32-.38,1.85-1.58,2.85-2.08,2.36-1.19,3.47-3.29,4.7-5.37.1-.17.12-.4.22-.56.98-1.57,2.61-2.08,4.16-1.21,1.06.59,2.03,1.33,3.04,2.02ZM229.91,74.82c.15.07.24.26.35.39-.15.08-.3.17-.44.25-.11-.13-.31-.26-.32-.4-.02-.22.2-.34.41-.24ZM203.08,53.76c-.06.56-.14,1.27-.99.92-.52-.21-.9-.18-1.33.17-1.32,1.07-1.56.01-2.01-1.05.88.11,1.67.56,2.18-.4.18-.35.6-.55,1.03-.55.61,0,1.2.1,1.12.91ZM205.88,56.61c-.22.25-.48.51-.83.44-.33-.07-.25-.38-.14-.59.19-.4.51-.64.98-.6.07,0,.14.08.21.12.09.27-.06.46-.22.64ZM187.07,81.8c-.26-.04-.43-.21-.42-.47.01-.36.23-.63.57-.67.29-.04.33.26.35.49.02.35-.07.64-.5.66ZM212.07,88.65c.44-.34.68-.92,1.34-.7,0-.01,0-.02,0-.04l.05.05s-.05-.05-.05-.05c.05-.04.09-.08.13-.11.78-1.71,1.54-3.44,3.74-3.73-1.47,1.02-2.38,2.6-3.74,3.73-.03.06-.05.11-.08.17-.02,0-.04,0-.05-.01-.1.88.49,1.49.88,2.18.75,1.34,1.35,2.72,1.14,4.37-1.27-1.87-.92-4.65-3.35-5.85ZM205.68,137.32c.04.31-.26.38-.46.29-.28-.11-.51-.35-.54-.69-.02-.24.08-.44.37-.47.39.15.58.48.63.87ZM204.21,126.58c.09-.26.39-.26.63-.16.42.17.57.54.62.96,0,.07-.05.14-.12.37-.29-.11-.44-.15-.58-.23-.35-.21-.7-.47-.55-.93ZM206.41,144.66c-.57.19-1.18.11-1.47-.53-.34-.75-1.22-1.12-1.51-2.6,1.05.78,1.97.71,2.78.99.5.17,1.19.39,1.14,1.1-.04.49-.48.89-.94,1.04ZM210.71,155.33c.27-.89.31-2.05,1.85-1.67-.19,1.14-1.15,1.25-1.85,1.67ZM227.08,158.78c-.16.11-.29-.01-.32-.2.02-.27.17-.44.43-.5.19-.05.38.05.32.2-.07.2-.25.39-.43.51Z"/>
    <path d="M191.03,86.93s-.02-.04-.03-.06c-1.4,0-2.64-.26-3.56-1.52-.61-.83-1.46-1.02-2.6-.8-1.89.37-3.82-.55-5.77-.11-.35.08-.61-.29-.62-.63-.02-.5.39-.75.81-.72,1.39.08,2.77.22,4.17.35.09-.56-.29-.82-.64-.82-1.19,0-1.34-.63-1.13-1.6.09-.43.16-.85.16-1.25-.94.86-1.76.57-2.78.02-.35-.19-.77-.25-1.16-.37-1.22-.36-1.5-.16-1.42,1.04.02.39.24.85.1,1.17-.47,1.1-.16,1.98.59,2.79.51.55.64,1.07.52,1.9-.34,2.21,1.67,4.42,3.89,4.39.93-.01,1.79.09,2.68.39,2,.66,3.73.21,5.32-1.27.7-.65,1.43-1.27,2.17-1.87-.22-.38-.41-.71-.6-1.03-.03.01-.05.02-.08.03Z"/>
    <path d="M181.65,81c-.21.97-.06,1.59,1.13,1.6.35,0,.73.26.64.82-1.4-.12-2.79-.27-4.17-.35-.42-.02-.83.22-.81.72.01.34.27.7.62.63,1.95-.44,3.88.48,5.77.11,1.15-.22,2-.03,2.6.8.92,1.27,2.17,1.53,3.56,1.52-.85-1.53-1.4-3.04-.07-4.65.26-.32.43-.89-.36-1.37-.35.79-1.2,1.25-1.13,2.29.04.54-.15,1.02-.74,1.08-.58.06-1.18-.02-1.35-.76-.15-.63-.32-1.08-1.15-.71-.72.32-.88-.22-.76-.76.14-.64-.06-.88-.7-.97-1.18-.17-1.8-.88-2.05-2.06-.18.11-.36.25-.53.44-.12.14-.23.25-.34.35,0,.4-.07.82-.16,1.25Z"/>
    <path d="M187.22,80.65c-.34.05-.56.32-.57.67,0,.26.16.43.42.47.44-.01.52-.31.5-.66-.01-.23-.06-.53-.35-.49Z"/>
  </g>
  <g>
    <path d="M151.23,158.02c1.37-.61,2.44-1.53,3.88-1.57,1.16-.03,1.76-.71,1.38-1.91-.25-.77-.26-1.55-.19-2.34-.04-.1-.08-.19-.11-.29-.24-.93.08-1.85.86-2.24.8-.4,1.15.25,1.57.72.31.35.69.54,1.14.32.44-.21.63-.64.55-1.07-.54-2.75.57-5.1,1.91-7.32,1.29-2.12,1.86-4.45,2-6.78-.18.1-.36.19-.54.29-.57.31-1.29.23-1.91-.11,0,0-.02.01-.02.02,0,0,0,0-.01,0,.11.18.22.35.33.53.03,0,.05,0,.08-.01l-.06.04s.06-.04.05-.04c-.02.02-.03.04-.05.06.31,1.2-.57,2.27-.21,3.79-1.22-2.07-1.23-2.1.21-3.79,0,0,0-.01,0-.02,0,0-.01-.02-.02-.03-1.48.34-2.67.04-3.94-1.01-.9-.74-1.94-1.25-3.04-1.33-.19.94-.46,1.87-.66,2.81-.22,1.03-.72,2.2-1.94,2.36-1.01.13-1.21.66-1.4,1.45-.31,1.25-.44,2.52-.51,3.79.2-.17.5-.21,1.07.1,1.45.8,2.68-.64,3.91-1.29,1.64,2.08,1.77,5.03,4.26,6.56-1.11.72-1.68-.11-2.31-.75-.82-.84-1.34-2.01-2.58-2.38-.16.71-.63.43-.86.12-.98-1.27-1.96-1.16-3.03-.14-.18.17-.35.34-.55.48-.02.75-.05,1.5-.1,2.24.82.06,1.62.13,2.41.19-1.47.76-2.07,1.07-2.51.88-.02.16-.03.33-.05.49.54,1.27.18,2.55.08,3.83-.03.43-.04.86-.06,1.29.51.44.87,1.07.98,2.06ZM153.13,154.72c.09-.36.34-.59.74-.47.29.09.3.35.26.61-.09.33-.22.69-.62.63-.39-.06-.48-.43-.39-.77ZM151.25,154.1c.49.25.76.66.7,1.23-.03.3-.28.42-.56.28-.42-.2-.65-.57-.66-1.03,0-.29.2-.45.51-.48Z"/>
    <path d="M161.2,169.84c.21-.57.77-.6,1.24-.81,2.36-1.06,4.87-1.9,6.74-3.8.84-.85,1.72-.35,2.57-.44,0,0,0-.01.01-.02-.74-.61-1.59-.95-2.55-1.07-.88-.11-1.69-.38-1.89-1.42-.02,0-.04.02-.06.03,0,0,0,0,0,0-.02,0-.03-.02-.05-.03-.81.18-1.62.26-2.58-.04.57-.94.71-1.78.43-2.55-.64-.4-1.28-.79-2-.83-1.69-.09-2.79-.69-3.36-2.39-.38-1.13-1.41-1.89-2.26-2.73-.04-.04-.08-.09-.12-.13.15.24.3.47.44.71.65,1.16-.42,3.2-1.8,3.3-2.68.2-4.67,1.34-5.6,3.93-.01.03-.04.05-.05.09.17.46.46.87.86,1.25.52-.03,1.04-.04,1.56-.04,1.77-.01,2.68.61,3.33,2.21.14.34.12.69-.25.89-.49.26-.51-.22-.68-.45-.47-.64-1.1-1.09-1.76-1.48-.47-.28-.97-.43-1.45-.47,1.14.9,2.32,1.85,3.04,3.04,1.3,2.16,2.82,3.93,5.05,4.91.51-.42.93-.96,1.21-1.7ZM163.63,163.16c.25,4.27-1.06,5.09-5.72,3.16,2.79-.02,5.13-.1,5.72-3.16Z"/>
    <path d="M193.22,154.97c-.95-1.18-2.05-2.23-3.4-3.02-1.03-.6-1.51-1.54-1.78-2.59-.27-1.04-.41-2.12-.55-3.19-.14-1.09-.42-2.04-1.24-2.9-.93-.97-1.19-2.4-1.55-3.62-.52-1.72-.64-3.63-.56-5.44.1-2.25.4-4.63,1.62-6.52.93-1.42,1.47-2.79,1.69-4.42.11-.81.26-1.58.64-2.19-.46.15-.86.11-1.23-.41-.07-.1-.06-.37.02-.46.68-.69,1.17-.19,1.85.21.37-.27.84-.47,1.47-.56,1.33-.19,1.53-1.87.52-2.83-.15-.15-.33-.37-.51-.38-1.67-.11-2.03-1.32-2.37-2.63-.13-.51-.43-.98-.69-1.44-.19-.33-.41-.6-.63-.83-.6,1.74-.99,3.28-.32,4.91-1.75-2.08-1.84-3.14-.02-5.22-1.24-.97-2.89-.94-4.45-1.03-1.49-.09-1.75,1.4-2.44,2.3-.77,1.01-1.24,2.12-1.5,3.31.14.17.28.34.44.49-.18-.06-.35-.14-.51-.22-.07.4-.13.81-.16,1.23-.09,1.29-.16,2.59-.3,3.88-.1.88-.09,1.78.3,2.54,1.16,2.22.79,4.39-.14,6.5-.5,1.14-.66,2.28-.65,3.47.02,1.4.08,2.79.28,4.19.31,2.23.32,4.53-.14,6.72-.71,3.36-1.73,6.65-2.64,9.97-.43,1.57-1.09,3.05-2.21,4.26-.7.76-1.45,1.29-2.23,1.58.05.23.13.45.22.68.62,1.67,1.14,1.78,2.41.52.37-.36.76-.71,1.16-1.04,1.15-.95.1-1.22-.6-1.7,1.01-.68,1.91-.75,2.63.28.65.92.68,1.78-.59,2.25-.24,1.96-2.6,1.69-3.31,3.16,0,0,.02.01.02.02,0,0-.03,0-.03,0-1.35.15-2,1.31-2.67,2.19-.77,1.02-1.66,1.7-2.73,2.29-.68.38-1.37.81-1.72,1.54-.46.98-1.23,1.6-2.1,2.22-.14.1-.25.2-.37.3,0,.03.01.06.02.09.04.53-.04,1.1.65,1.62,1.36-.99,3.03-1.18,4.77-1.21,1.07-.02,2.19-.17,3.18-.55,4.48-1.73,8.04-4.55,10.1-9.02.45-.98.82-2.01,1.38-2.93.87-1.42,2.49-1.51,3.45-.13.58.83,1.21,1.58,1.97,2.2.79.35,1.63.67,2.2,1.45-.17.12-.31.22-.46.33.1.28.17.57.18.91.06,1.98,1.32,3.61,1.73,5.52.28,1.3,1.62,2,3,2.14.36.03.67,0,.94-.1s.51-.24.72-.43c.26-.19.57-.38.88-.57,2.7-1.58,2.7-5.58-.32-8.48-.37-.23-.77-.43-1.19-.59-.84-.33-1.77-.52-2.77-.52-.26-.5-.27-.87-.14-1.16.39-.87,1.95-1,1.42-1.48-.07-.3-.13-.6-.15-.91s0-.63.1-.95c-.96-.3-1.8.12-2.34.42-2.25,1.28-3.72.18-5.18-1.32-.35-.36-.77-.65-1.55-1.29,1.77.18,2.58-.63,3.15-1.65.82.56.08,1.08.31,1.57.55.5,1.11-.11,1.67-.05.93.1,1.87-.8,2.75-.1.85.68,1.84,1.28,2.45,2.18.2.3.36.64.45,1.02.38.22.63.47.79.75s.22.59.24.91c0,.77,0,1.53.06,2.25.03.36.08.7.14,1.02-.21,1.81,1.79,1.81,2.79,1.81-1,0-1-1-1.36-2.48-.18-.39-.36-.78-.53-1.17-.33-.77-.61-1.47-.85-2.03-.18-.31-.42-.63-.73-.96-.16-.25-.33-.51-.49-.77-.16-.26-.32-.53-.47-.8-.47-.84-.99-1.66-1.56-2.43-.04-.01-.08-.01-.13-.04-.18-.11-.26-.28-.25-.45ZM178.37,135.85c.34.05.48.39.53.73,0,.26-.09.49-.36.53-.43.06-.58-.25-.57-.59,0-.27-.09-.74.41-.67ZM176.37,165.78c-1.59-1.28.32-1.88.19-2.49-.24-1.19.55-1.89,1-2.96-.32,1.99,1.22,2.44,2.82,3.25-1.65.69-3.78-.22-4.01,2.2ZM185.05,158.3c-.9.51-1.52,1.28-2.56.63-.51-.32-1.05-.64-.86-1.4.22-.88.82-1.23,1.68-1.21-.01-.03-.03-.05-.04-.08,0,0,0,0,0,0,.02-.01.04-.02.06-.03-.18-.94.45-1.4,1.15-1.89.06,1.33.06,1.36-1.15,1.89,0,.04,0,.07.02.1-.01,0-.02,0-.03,0,.2.34.37.7.62,1,.26.31.62.55,1.12.98Z"/>
    <path d="M161.73,135.74s-.03-.04-.04-.06h0s.05.03.07.04c.71-.74,1.58-1.26,2.47-1.8-.14-2.23-1.14-4.33-3.44-5.51-.78-.4-1.46-.49-2,.26-.49.68-.84.68-1.57.22-.8-.5-1.16-.24-1.49.57-.29.7-.5,1.39-.45,2.19.03.44,0,.88-.04,1.32,1.44.51,2.84,1.16,4.16,2,.74.47,1.39,1.03,2.34.78ZM159.2,129.97c0-.11.19-.31.3-.31.22,0,.59.05.64.18.11.29-.22.33-.43.42-.25.04-.51.03-.51-.29Z"/>
    <path d="M164.65,170.81c.35-.73,1.03-1.16,1.72-1.54,1.06-.58,1.96-1.27,2.73-2.29.66-.88,1.32-2.03,2.67-2.19,0,0,.03,0,.03,0,0,0-.03,0-.04,0,0,0,0,0,0,0-.86.08-1.74-.41-2.57.44-1.86,1.89-4.37,2.74-6.74,3.8-.47.21-1.03.25-1.24.81-.28.74-.7,1.28-1.21,1.7.37.16.75.31,1.15.43.68.2.97.71,1.04,1.38.12-.1.23-.2.37-.3.86-.62,1.63-1.24,2.1-2.22Z"/>
    <path d="M167.32,162.29c.2,1.04,1.02,1.31,1.89,1.42.96.12,1.81.45,2.55,1.07.71-1.46,3.07-1.2,3.31-3.16,1.27-.47,1.24-1.33.59-2.25-.72-1.03-1.62-.95-2.63-.28.71.48,1.75.75.6,1.7-.4.33-.79.68-1.16,1.04-1.27,1.25-1.79,1.15-2.41-.52-.08-.22-.17-.45-.22-.68-.46.17-.94.25-1.43.25-.13.6-.34,1.14-1.09,1.41Z"/>
    <path d="M162.06,136.27c-.11-.18-.22-.35-.33-.53-.95.24-1.59-.31-2.34-.78-1.32-.85-2.71-1.49-4.16-2-.04.33-.09.65-.16.97,1.1.09,2.14.59,3.04,1.33,1.27,1.05,2.47,1.35,3.94,1.01Z"/>
    <path d="M154.06,146.7c.24.31.71.59.86-.12-.01,0-.02,0-.03-.01,0-.03.02-.05.03-.07-.15-.19-.28-.4-.46-.55-.31-.27-.73-.51-.53-.99.05-.14.44-.21.67-.19.77.04.7.56.55,1.09-.06.22-.15.43-.23.65,0,0,.01.02.02.03,0,.02-.01.04-.02.06,1.24.37,1.76,1.55,2.58,2.38.63.64,1.2,1.47,2.31.75-2.49-1.54-2.62-4.49-4.26-6.56-1.23.65-2.47,2.09-3.91,1.29-.57-.32-.87-.27-1.07-.1-.05.9-.07,1.8-.09,2.7.2-.15.38-.32.55-.48,1.07-1.01,2.05-1.13,3.03.14Z"/>
  </g>
  <path d="M352.07,164.56c2.44-.63,4.36-1.95,5.18-4.5.3-.92.64-1.83,1.52-2.36,1.4-.84,2.29-2.06,2.91-3.54.42-1.02,1.21-1.77,1.94-2.57.64-.71,1.36-1.4,1.8-2.23,1.01-1.92,2.43-3.56,3.66-5.32-.37-.07-.75-.13-1.15-.14.46-.25.88-.16,1.29-.05.02-.03.04-.05.06-.08,1.3-1.89,2.37-3.87,2.99-6.09.58-2.07,1.17-4.13,1.89-6.16.5-1.4.64-2.79.4-4.23-.14-.83-.37-1.65-.4-2.48-.08-2.83-1.18-5.35-2.32-7.86-1.08-2.39-2.42-4.69-3.32-7.15-.78-2.15-1.91-3.81-3.94-4.86-.63-.33-1.21-.77-1.77-1.21-1.47-1.14-3.09-1.76-4.99-1.7-1.45.05-2.74-.35-4.05-1.14-3.4-2.07-7.1-2.71-11.04-1.72-1.22.31-2.25.75-2.91,1.88-.62,1.06-1.53,1.8-2.56,2.45-1.21.76-2.33,1.68-3.48,2.52-4.13,3.02-5.21,8.79-4.08,11.75.27-.79.92-1.42,1.84-1.73,1.23-.43,1.62.68,2.26,1.26.66.59,1.11,1.52.74,2.26-.3.6-1.26.8-2.07.77-.26-.02-.52-.02-.77-.07-.39-.07-.79-.16-1.14-.31,1.23,3.07,2.52,6.12,4.32,8.92.4.62.65,1.2.76,1.94.26,1.64.51,3.27.63,4.94.25,3.59-.52,6.78-2.71,9.7-2.63,3.51-2.74,7.2-.5,11.05,1.95,3.34,4.72,5.7,8.23,7.09,1.97.78,4,1.62,6.35,1.76,1.39-.25,2.94-.44,4.44-.83ZM369.08,112.67c.42-.07.56.3.78.54-.08.13-.14.33-.26.37-.46.17-.56-.2-.7-.52-.09-.2-.05-.36.17-.4ZM357.42,154.29c-.01.22-.16.44-.35.93-.57-.9-.69-1.62-.01-1.82.66-.19.38.54.36.89ZM358.83,150.95c-.13.01-.4-.14-.39-.2.02-.26.16-.47.46-.53.11.06.33.12.35.22.04.28-.14.48-.42.5ZM362.16,141.76c.96-.55,1.61-.89,2.4-.84q-.63,1.39-2.4.84ZM364.56,138.68c-.4.3-.63-.07-.73-.39-.06-.2,0-.43.02-.65-.02-.01-.04-.02-.05-.03l.06-.06s-.06.06-.06.05c-.04-.05-.07-.11-.1-.18-.33-.24-.75-.37-.87-.87.76-.13.71.47.87.87.06.04.12.08.16.13,0,.03,0,.06,0,.09.19.13.39.24.56.4.19.17.37.49.15.65ZM367.54,116.81c.36,0,.57.25.67.59,0,.31-.22.46-.47.45-.35,0-.59-.24-.64-.6-.05-.32.18-.45.44-.44ZM367.87,124.62c-1.09,1.66-2.56,1.16-3.6,1.52,1.03-.43,2.06-.87,3.6-1.52ZM363.71,109.76q-1.66.79-2.97-.91c1.12-.18,1.88.64,2.97.91ZM350.29,103.39c.12.02.3.14.32.24.04.2-.11.27-.3.16-.13-.07-.24-.17-.38-.27.13-.05.26-.14.37-.12ZM339.12,108.62c.25-.25.61-.48.91-.22.23.2.35.57.45.89.17.54-.3.53-.58.54-.68.04-1.21.73-1.96.42.09-.78.7-1.17,1.19-1.64ZM338.6,117.13c-.49.87-.92,1.64-1.54,2.75q-.74-2.19,1.54-2.75ZM334.32,112.37c-.47-.07-.63-.42-.72-.83-.03,0-.05.01-.08.02-.01-.01-.03-.02-.04-.04-.75.24-1.48.57-2.25,1.2.69-2.28,1.03-2.43,2.25-1.2.03-.01.07-.02.1-.04l-.06.07s.06-.07.06-.07c0,.02.01.04.01.06.3-.07.6-.15.9-.2.5-.08,1.01-.15,1.33.37.06.09,0,.34-.09.42-.41.39-.93.3-1.42.23ZM339.54,137.25c-.12.18-.2.47-.36.54-.45.19-.68-.18-.76-.52-.33-1.39-.62-2.79-.91-4.19-.04-.18-.05-.34-.06-.5-.31.06-.59.06-.61-.3-.05-.86-.84-1-1.15-1.52-.01-.36.2-.53.45-.58,2.01-.36,2.24-.23,1.87,1.51.65.18.94.69,1.03,1.28.02.17.04.33.06.5.24.05.48.11.69.23-.24.03-.46.03-.66.02.15,1.17.27,2.34.41,3.51ZM345.88,155.3c-.44-.43-.96-.81-1.42-1.23-.18.23-.38.45-.6.67-.53-.31-.03-.75-.14-1.11-.31-1.03-.79-1.23-1.68-.63-.35.23-.6.63-.95.86-.18.12-.52.12-.72.03-.41-.19-.42-.44,0-.73.53-.37.14-.76-.08-1.09-.73-1.08-.21-1.4.83-1.35.65.03,1.37.56,1.95.21-1.82-2.46-.47-4.34,1.16-6.16.72-.8,1.44-1.6,2.18-2.38,2.33-2.45,4.28-5.16,5.76-8.21.49-1.01.63-2,.39-3.12-.56-2.66-1.45-4.95-4.03-6.44-.28-.16-.54-.34-.8-.54.2.28.42.58.66.91-1.86.7-3.44,1.56-5.31.15-1.02-.78-2.33-1.02-3.64-.57,0,.03,0,.06,0,.09h0s-.05-.03-.07-.05c-.31.37-.42,1.34-1.18.44-.36-.43-.89-.82-.86-1.68.73.44,1.38.84,2.04,1.24,0,0,.01-.02.02-.02.02,0,.04-.01.07-.02.04-.62.37-1.28-.53-1.68-.36-.16-.61-.6-.87-.93-.31-.38-.83-.76-.39-1.33.34-.44.76-.13,1.17,0,.91.27,1.83.52,2.75.72.91.2,1.77.21,2.57-.08-.06-.04-.12-.08-.18-.11-.49-.27-.86-.82-1.19-1.31-.99-1.49-1.94-3.02-2.9-4.54-.42-.65-.53-1.37-.13-2.04,1.62-2.7,3.46-5.18,6.58-6.36.84-.32,1.73-.5,2.44-.1,2.33,1.32,5.01,1.54,7.45,2.57.66.28,1.24.62,1.78.98.02-.07.05-.12.08-.13.38-.12.77-.18,1.16-.25.06-.01.13.07.37.21-.29.17-.42.31-.56.32-.17.02-.33.14-.49.23.55.43,1.02.92,1.45,1.45.5.14.86.52.94,1.01.02.12.01.23,0,.34.61,1.08,1.04,2.29,1.35,3.6.12.5-.3.79-.72,1,.17.6.34,1.21.52,1.81.03,0,.07,0,.1,0,.16-.1.33-.19.47-.31.22-.19.39-.22.51-.02.02.04-.08.19-.15.24-.09.06-.21.09-.32.09-.17.01-.34,0-.51,0-.03.02-.06.03-.08.05,0-.02,0-.03-.01-.05-.02,0-.04,0-.06,0,.36.28.72.61,1.13.85.98.58.93,1.19.76,2.33-.28,1.91-1.33,3.86-.39,5.86.36.76.06,1.43-.29,2.04-1.98,3.52-3.31,7.42-6.08,10.37.12.58.48.62.83.69.53.1.91.4.82.96-.13.83-.2,1.71-.55,2.45-1.65,3.49-3.69,6.72-6.77,9.15-.68.53-1.35.99-2.29.54-.29-.14-.74-.21-1.02-.09-.76.32-1.5.96-2.29.2ZM347.95,126.87c.02-.5.31-.79.83-.74.29.03.47.21.38.53-.1.37-.39.55-.71.68-.3-.03-.51-.2-.5-.47Z"/>
  <path d="M324.75,137.95s0,0,0,0c-.3.01-.63,0-.85-.28.21-.15.4-.35.63-.45.21-.09.44-.08.58.13.32-.6.58-1.25.82-1.89.57-1.51-.44-2.8-1-4.06-.62-1.38-2.61-2.35-3.59-1.69-1.79,1.21-3.96,1.48-5.72,2.88-.4.32-.75.57-1.06.78-.19.32-.41.64-.7.95,0-.19.02-.38.04-.56-.78.38-1.34.35-1.95,0-.25.39-.69.76-1.02,1.24-.81-.92-1.56-1.61-2.11-2.43-.43-.64-.24-1.17.33-1.36,0,0,0,0,0,0-2.09-2.38-3.48-5.1-4.51-8.1-.28-.8-.42-1.53-.42-2.25-.31-.45-.58-.92-.66-1.5-.03,0-.04-.01-.07-.02,0-.02,0-.03.01-.04-.82.3-1.39-.36-2.08-.56-.38-.11-.45-.44-.27-.8.2-.39.7-.91.89-.72.58.6,2.07.67,1.46,2.07.01,0,.02,0,.04,0,0,0,0,0,0,0,0,.03.01.05.02.07.33.07.59.14.83.21.07-.3.17-.61.3-.92.87-2.11,1.44-4.3,1.19-6.64-.1-.96.08-1.89.42-2.82.28-.77.5-1.61.54-2.43.15-3.34.23-6.68.3-10.03.01-.59.01-1.32-.31-1.74-.21-.28-.41-.57-.59-.87-.64.19-1.34.35-2.13.57.21-.97.79-1.46,1.38-1.89-.45-.85-.9-1.69-1.49-2.44-.35.34-.75.68-1.5.77-.18-.57-.36-1.05-.46-1.54-.07-.36-.15-.72-.1-1.06-.74-.62-1.33-1.44-1.78-2.33-.86-1.69-1.58-3.46-2.82-4.94-.96.28-1.66,1.33-2.79,1.14-.53-.6-.45-1.44-.76-2.13-.23-.51-.15-1.01.37-1.34.55-.35,1.02-.15,1.3.35.34.6.84.96,1.38,1.27-.21-.47-.27-1.07-.38-1.59-.15-.7,0-1.51-.3-2.12-1.34-2.79-.76-5.05,1.59-6.98.36-.29.58-.76.85-1.16.02-.03.04-.05.06-.07-.14-.13-.25-.29-.32-.5-.23-.68.31-1.13.96-1.23,1.79-.27,3.03-1.91,5.51-2.07-1.01,1.34-2.09,2.27-3.2,3.01.63.2,1.21.57,1.82.83,1.43.61,2.81,1.47,4.3,1.74,1.87.33,3.39,1.11,4.77,2.3,1.02.88,2.25,1.3,3.52,1.73,1.05.36,1.95.25,2.86-.11-.16-.24-.32-.49-.51-.77.79.13,1.5.08,2.15-.1,2.13-1.43,3.22-3.64,4.23-5.91.44-.99-.07-2.2-1.01-2.84-.79-.53-1.73-.87-2.44-1.48-.82-.7-1.13-2.3-2.75-1.08-.12.09-.25.08-.37.01,0,0,0,0,0,0-.78,0-.98-.69-1.37-1.13-.11-.09-.23-.17-.34-.26-.06-.03-.12-.05-.18-.06-.03,0-.06,0-.09.02.01-.02.02-.04.03-.07,0-.03-.01-.05-.01-.08-1.62-1.18-3.32-2.2-5.4-2.51-.87-.13-1.78-.42-2.07-1.24-.64-1.77-1.78-1.16-2.91-.8l.08-.1c-.66.75-1.37,1.43-2.46.83-.78-.43-1.58-.41-2.44-.36-2.18.12-4.14.73-6.12,1.7-2.39,1.16-4.1,2.95-5.55,4.98-1.51,2.11-2.99,4.34-2.85,7.18.03.69-.14,1.43-.35,2.1-.57,1.78-.48,3.54-.07,5.32.32,1.4.6,2.81.87,4.22.6,3.05,1.4,6.02,2.95,8.75,1.54,2.71,3.23,5.33,4.39,8.24.95,2.38,1.5,4.78.81,7.36-.01.04-.02.08-.03.13.59-.81,1.33-1.54,2.65-1.78-.63,1.84-1.64,2.98-3.09,3.59-.31,1.42-.6,2.86-.98,4.26,1.05-.33,2.08-.77,3.17-.91,0-.02.03-.04.03-.06h0s.03-.01.04-.02c-.07-.22-.19-.45-.15-.65.08-.44-.17-1.07.55-1.22.12-.03.34.09.42.21.32.49.29.96-.2,1.33-.18.14-.41.22-.62.33,0,.02.02.05.02.07-.03,0-.06.01-.09.02-.42,1.02-1.88.84-2.14,1.34-.36.67-.82.87-1.31.91-.25,1.61-.14,3.22.25,4.8.1.4.21.79.32,1.19.48-.5.91-1.04,1.56-1.32-.39.73-.78,1.47-1.18,2.2-.03.06-.06.1-.09.15.49,1.68,1.03,3.34,1.55,5.01.32,1.02,1.15,1.84,1.16,2.99.02,1.29.47,2.31,1.15,3.18.88-.45,1.52-.64,2.29-.27-.56.31-1.1.65-1.9.73.45.49.97.93,1.54,1.35,1.35.99,2.78,1.84,4.19,2.73,2.86,1.79,6.06,2.84,8.97,4.5,1.08.62,2.29.62,3.51.5,2.06-.21,3.97-.95,5.86-1.69,1.02-.4,1.73-1.1,2.27-1.93ZM309.57,64.29c.08-.14.24-.24.39-.32.21-.11.32,0,.21.2-.08.15-.21.26-.28.33-.31.07-.43-.03-.32-.21ZM297.15,116.77c-.27.02-.53-.11-.47-.4.08-.34.37-.54.74-.49.08.01.13.26.19.4-.06.25-.18.48-.46.5ZM296.57,87.77c-.13-.12-.21-.3-.35-.38-1.35-.74-2.63-.21-2.8,1.32-.11.94-.19,1.65-1.24,1.86-.46-.86.27-1.51.34-2.26.21-2.22.61-2.5,2.72-2.37.69.04,1.37.15,2.05.25.43.07.84.23.92.73.06.39-.19.65-.48.85-.38.27-.78.35-1.17,0ZM298.07,103.57c-.18-.16-.35-.37-.43-.6-.06-.18.11-.29.31-.26.32.16.57.39.52.78,0,.04-.34.14-.41.08ZM299.81,117.63c-.55-.07-.93-.49-.88-1.07.04-.43.36-.8.84-.82.6-.02.9.39,1.02.93-.1.58-.38,1.03-.99.96ZM302.13,128.71c-.27-.09-.91-.61-1.24-1.38.81-.05,1.52-.1,2.49-.16-.4.89-.39,1.85-1.25,1.54ZM317.3,137.72s-.06,0-.09,0c0-.01,0-.02,0-.03-1.91-.2-1.66-1.78-1.87-3.07,1.14.7,1.76,1.73,1.87,3.07.02,0,.03,0,.05.01,0,0,.01,0,.02,0,0,0,.01.01.02.02,1.08-.06,2.17-.06,3.24-.21,1.03-.14,1.09.56,1.44,1.77-1.38-2.13-3.43-.1-4.69-1.57Z"/>
  <path d="M101.7,116.6c-.11-1.51.89-3.51-1.11-4.51-1,5,2,10,7.02,9.17.31-.02.62-.07.92-.14.92-.21,1.82-.64,2.71-1.26.78-.55,1.43-1.26,2.17-1.86.26-.21.52-.42.78-.62-.69-.23-.3-.92-.36-1.41-.03-.07-.06-.14-.07-.22,0,0,0-.01,0-.02,0,0,0,0,0,0h0s0,0,.01,0h5.48c-.89.58-1.7.85-2.46.91.36.2.64.5.63.83-.01,2.34.78,4.73-.45,7.02-.41.77-.37,1.64-.18,2.52.19.02.37.03.55.03,0,.48-.22.52-.45.5.11.49.18.97.21,1.44.26.11.51.27.77.53-.25,0-.5-.02-.74-.04.02,2.49-.91,4.85-1.67,7.23-1.83,1.79-2.04,4.28-2.73,6.54-.25.83-.42,1.61-1.17,2.1-.5.32-.98.67-1.46,1.03.47.11.97.13,1.53.02.38-.08.61.29.59.67-.02.35-.18.71-.56.77-.76.11-1.53.2-2.3.19-.48,0-.94.02-1.41.11-2.19,1.89-4.32,3.87-6.96,5.17-1.14.56-1.41,1.55-1.21,2.72.04.24.09.47.14.7.49,2.33,1.72,3.32,4.02,3.05.96-.12,1.88-.27,2.84-.07.33.07.65.07.96,0-.56-.51-.46-1.25.22-2.48.26.66.51,1.3.76,1.92.97-.7,2-.61,3.11-.23,1.2.41,2.04-.15,2.83-1.02.77-.85,1.09-1.84,1.25-2.92.12-.82.03-1.68.57-2.41,1.47-1.99,1.85-4.41,2.26-6.72.21-1.18.57-2.23,1.09-3.2-.16.07-.31.16-.44.32.2-.41.44-.65.73-.85.24-.37.5-.73.81-1.07.38-.43.68-.89.96-1.37-.06.05-.11.09-.19.14-.29-.66-.26-1.22.18-2.02.27.4.43.74.45,1.04.56-1.14,1.02-2.33,1.75-3.36.16-1.23.57-2.35,1.1-3.42-.15-.05-.31-.11-.47-.19.19-.73.34-1.22.45-1.73.17-.85.17-1.75,1.21-.39.02.03.04.03.07.05.47-.79.95-1.58,1.37-2.4,1-1.96,2.55-3.49,4.32-4.73,1.05-.73,1.92-1.9,3.34-1.98,1.41-.08,2.13-.7,2.37-2.15.29-1.73,1.85-2,3.24-2.39,1.32-.38,2.26.09,2.96,1.16,1.27,0,2.34.42,2.98,1.59.76,1.39,1.89,2.47,3.01,3.53.67.64,1.6,1.09,2.63.91.78-.13,1.23-.66,1.56-1.34.09-.2.3-.39.51-.48,1.48-.6,1.51-1.69.97-2.93-.24-.56-.54-1.09-.84-1.61-.16.12-.33.25-.51.38-1.28.96-3.12,1.03-4.08,2.53.31-.59.68-1.11,1.1-1.58.21-.23.42-.46.65-.67-.42-1.57,3.58-.57,1.58-2.57-2-1-2-4-5-3-1,1-1,2-1,3-3-4,3-7-1.67-8.82-.33-.27-.66-.57-.99-.84,0,0,0-.03,0-.05-.43-.15-.88-.29-1.34-.4-.11-.03-.22-.11-.33-.14-2.25-.48-4.62-.8-6.64.37-1.6.93-3.19,2.05-4.31,3.72-1.27,1.9-3.11,3.31-4.83,4.79-.71.61-1.67.49-2.21-.23-.36-.47-.72-.98-.91-1.54-1.25-3.73-4.01-5.47-7.73-6-.83-.12-1.65-.48-2.47-.44-.38.02-.76.06-1.13.11.01,1.93-.26,3.48,1.16,4.61.46.37.24,1.23-.13,1.37-.85.32-.94,1.23-1.64,1.96-.42-1.02-.52-2.02-.98-2.85-.15-.28-.35-.54-.61-.77-.24-.84-.24-1.84.31-2.04.38-.24.67-.55.95-.93s.54-.82.86-1.33c-.38.06-.76.14-1.12.24s-.71.23-1.05.39c-.82,1.06-1.89,1.86-3.02,2.61-.38.25-.76.49-1.15.74-.34-.09-.64-.08-.93,0-.29.08-.56.22-.82.41-.26,2.07-3.26,1.07-2.26,3.07,0,1,1,1,2,1-2-1,0,2-2.4,1.78-.15.24-.31.49-.49.74ZM108.91,155.48c-.05.38-.36.55-.77.6-.58-.21-1.05-.56-.99-1.28.03-.28.32-.44.57-.37.54.16,1.29.18,1.18,1.05ZM116.35,146.17c-1.17.35-1.66,1.87-3.46,1.56.83-2.12,3.1-2.37,4.09-4.01.84,1.2.47,2.12-.63,2.45ZM151.73,119.9c.06-.19.36-.42.56-.43.64-.05,1.93,1.02,1.9,1.5-.14.52-.6.59-1.01.62-.71.06-1.66-1.05-1.45-1.69ZM136.35,114.85c.09-.26.31-.44.58-.4.75.1,1.51.2,2.37.9-1.04.98-1.9.59-2.74.16-.27-.14-.29-.41-.2-.66ZM129.9,114.85c.1,0,.19.17.29.26l-.37.25c-.09-.1-.19-.2-.28-.3.12-.08.24-.21.36-.21ZM117.49,115.42c-.03-.1-.1-.22-.07-.28.04-.08.18-.1.27-.15.03.1.05.2.08.3-.09.04-.19.09-.28.13ZM126.29,122.79c-.58.76-1.16.3-1.73-.04-.05-.03-.1-.08-.15-.12,0,0-.01,0-.02.01,0,.02-.02.04-.03.06.42,1.94-1.34,3.14-1.68,4.82-.55-2,1.12-3.21,1.68-4.82,0-.04,0-.08-.02-.13l.04.06s-.04-.06-.03-.05c.02.02.04.03.06.04.07-.04.14-.06.2-.11.51-.52,1.04-.89,1.67-.19.08.09.09.37.02.46ZM127.12,115.95c-.9.27-1.33-.54-2.01-.59.71-.12,1.44-.21,2.01.59ZM122.28,116.98c.82,1.09,1.68,2.01,3.21,1.48-.09,1.09-.6,1.59-.94,2.18-.52.9-.96,1.86-2.36.96-.81-.52-1.98.14-3.04-.36q3.4-1.67,3.13-4.25ZM120.81,107.96c.75,1.04,1.56,1.62.34,2.54-1.03.77-1.41,1.87-1.05,3.26-1.61-.02-2.99.41-4.55.45,2.84-1.05,4.64-2.97,5.26-6.26ZM109.85,113.9c.42-.18.82-.18,1.2.09.06.04.1.12.31.38-.18.1-.25.16-.33.17-.49.07-1,.2-1.38-.24-.12-.14.01-.32.21-.4ZM105.85,114.54c-1.26,1.54.74,3.54-1.26,4.54,1-1-1-3,.57-4.31.2-.1.43-.17.69-.23Z"/>
  <g>
    <path d="M291.81,168.28c-.13-.16-.25-.32-.38-.48-.38-.47-.76-.95-1.13-1.43-.36-.47-.65-1.01-.34-1.59.62-1.16.02-2.08-.69-2.81-1.25-1.29-2.09-2.89-2.45-4.51-.6-2.66-1.88-4.93-3.19-7.22-.46-.8-1.09-1.5-1.5-2.32-.73-1.47-1.28-3.13-.23-4.56,1.09-1.49.94-2.75,0-4.12-.98-1.44-1.13-3.12-.68-4.64.55-1.88.42-3.66-.03-5.45-.38-1.5-.06-2.99-.21-4.24.55-2.25,1.02-4.27,1.57-6.27.16-.58.67-.54,1.09-.21.43.34.97.51,1.11-.08.17-.73.35-1.51.4-2.27-1.54.11-3.14-.13-4.8-.73,1.6.01,3.21.11,4.8.04-.03-.51-.14-1-.37-1.45-1-1.9-1.65-4-3.32-5.61-.87-.83-2.16-1.44-2.55-2.72-.66-2.17-2.44-2.95-4.32-3.63-1.54-.56-2.53.08-2.45,1.76.06,1.51.29,3.01.58,4.5.4-.2.83,0,1.24.2.08.04.14.12.38.34-.19.16-.25.25-.34.27-.35.09-.72.26-1.07.22.26,1.1.54,2.2.4,3.33-.15,1.18,0,2.34.26,3.43.73,2.98-.55,5.47-1.88,7.85-.96,1.74-2.01,3.69-4.43,3.97-.31.04-.66.29-.87.55-.34.43-.74.81-1.15,1.16.22.44.4.92.06,1.58-.52-.1-.99-.29-1.44-.53-.87.62-1.73,1.24-2.43,2.06-.87,1.02-1.87,1.28-3.09.76-.21-.09-.44-.14-.67-.19-1.28-.28-2.3.07-2.89,1.29-.55,1.14-1.06,2.3-1.56,3.47-.44,1.03-.69,1.36-1.3,1.14,0,.02,0,.03,0,.05-.64.78-1.13.91-1.61.73-.16-.06-.31-.15-.47-.27-1.02.88-1.69-2.6-2.95-1.64-.15,1.11-.29,2.22.93,3.54.13.09.26.17.4.25.96.53,2.18.69,3.63.48.19.06.37.14.54.23.85.46,1.42,1.3,1.81,2.26.49,1.2,1.26,2.2,1.87,3.3.95,1.69,2.19,2.3,4.01,1.86,1-.24,1.94-.57,2.8-1.02-.61-1.74-2.57-2.05-3.69-3.22-.52-.55-1.08.87-1.96.85.45-.98,1.23-1.5,2.36-1.68,1.02-.16,2.04-.39,3.03-1.25-1.36-.92-2.72-1.65-3.61-3.59,1.51,1,2.59,1.72,3.68,2.44.34.23.72.63.54.94-1.02,1.8.56,2.63,1.36,3.69.09.12.16.25.22.38.57-.59,1.05-1.28,1.41-2.12.47-1.1,1-2,2.03-2.68,1.31-.86,2-2.12,2.29-3.71.29-1.58.86-3.11,1.34-4.65.1-.32.34-.71.72-.49.22.13.43.58.38.84-.42,2.42.06,4.83.06,7.24,0,2.06.39,4.13.66,6.18.23,1.74,1.02,3.27,1.85,4.81,1.1,2.02,1.76,4.12,1.08,6.37.53.51,1.01,1.31.92,1.75-.08.42-.46.6-.88.57-.26-.02-.53-.17-.76-.35-.11.43-.17.87-.13,1.27.11,1.15-.32,1.93-.96,2.81-.78,1.08-.54,2.19.36,3.13.89.93,2.03,1.25,3.13.62.92-.53,1.72-1.09,2.88-.85.78.17,1.61.05,2.39.2,1.48.29,2.95.62,4.12,1.65.17.15.33.31.48.49.74.1,1.27.89,1.79,1.76.13.22.26.44.39.65.2,2.43,2.56,1.61,2.56,1.61,3.62-1.78-.67-3.48-.7-5.75-.15-.2-.31-.38-.45-.57ZM256.75,136.7c-.45-.55-.75-1.08-.32-1.81.72.51.83,1.08.32,1.81ZM266.88,132.49c-.44-.19-.85-.44-.78-1.01.04-.32.29-.44.6-.42.54.13.73.54.71,1.04,0,.3-.17.55-.54.4ZM274,111.27c-.28-.09-.41-.38-.4-.69.08-.3,2.2-1.73,2.46-1.67.34.09.42.35.42.65,0,1.13-1.36,2.08-2.47,1.71ZM272.15,132.27c-1.03-.18-1.84.11-2.61.69.02,0,.04,0,.07,0,.87-.26,1.64-.18,2.28.88-1.18.36-1.49-.85-2.28-.88-.05.01-.09.02-.14.04l.05-.04c.02-.19-.02-.44.09-.57.93-1.1,2.47-.55,3.58-1.29.35-.23.87.21,1.37.8-.79.51-1.63.5-2.39.36ZM274.61,102.68c.05-.13.28-.22.45-.28.23-.09.41.02.41.27,0,2.2,1.54,3.33,3.52,4.7-3.13.13-5.26-2.43-4.38-4.69ZM287.08,161.69c-.6.76-1.2,1.51-2.32,1.45-.59-.03-1.08.16-1.5.64-1.68,1.95-2.06,1.91-3.54-.28-.05-.07-.02-.18-.05-.57,2.66.5,4.53-.69,6.17-2.36.39-.39.9-.64,1.26-.39.55.39.39,1,0,1.51Z"/>
    <path d="M274.09,93.62c.37-1.67.52-2.78,2.54-3.82.06-.21.11-.43.14-.66.64-2.45.93-4.67-.22-6.88-.03-.17-.05-.34-.07-.51-.05-.34-.1-.68-.17-1.02-.29-1.49-1.62-2.56-3.2-2.69-.3-.02-.79.13-.9.35-1.02,2.1-2.89,3.53-4.2,5.4-.26.37-.69.82-.63,1.17.23,1.34-.63,1.77-1.56,2.35-.65.41-1.04.82-1.22,1.28.35-.21.87-.25,1.14-.53-.02.88.03,1.74-1.06,1.65-.04,0-.08-.02-.13-.03.09.33.26.69.51,1.09,1.54,2.44,3.55,4.24,6,4.44.29.06.55.1.81.13s.49.03.7.02q1.44-.07,1.56-1.22c-.01-.15-.03-.33-.05-.52ZM268.55,93.5c-.32-.13-.38-.38-.23-.64.15-.26.44-.36.7-.24.11.05.2.33.16.47-.07.29-.32.44-.63.41Z"/>
  </g>
  <path d="M70.68,146.39c.17-.12.36-.25.56-.23.13.02.24.09.34.17.98.78,1.56,1.97,1.77,3.2.39,2.26.02,5.56-2.06,6.91-1.66,1.08-3.63.75-4.84-.81s-2.09-5.08-.92-6.77,3.6-1.42,5.15-2.47Z"/>
  <path d="M79.66,96.06c-1.42.04-2.5,1.8-1.86,3.07s2.75,1.41,3.52.21c.8-1.25-.02-2.91-.99-4.03"/>
  <path d="M77.07,99.07c-2.53.08-4.45,3.19-3.31,5.45s4.89,2.5,6.25.37c1.42-2.23-.03-5.17-1.77-7.16"/>
  <path d="M46.16,160.51c-1.5.08-3.1-.6-3.78-1.94-.59.47-.81,1.34-.52,2.03.2.49.61.85.96,1.26.97,1.14,1.46,2.67,1.32,4.16.03-.31,3.41-2.1,3.88-2.46.99-.78,3.12-2.22,3.57-3.45,1.31-3.62-3.86.3-5.42.39Z"/>
  <path d="M189.08,160.48c1.12.84,2.85.96,3.78,1.96.67.73.73,1.74,1.06,2.63s1.27,1.8,2.31,1.56c.54-.13.93-.53,1.25-.94.55-.71,1.01-1.54.86-2.38-.26-1.43-2.08-2.17-3.11-3.31-.43-.47-.76-1.05-1.37-1.34-.89-.41-1.9-.2-2.76-.71-.66-.39-.95-1.54-1.95-1.52-2.21.04-1.11,3.24-.05,4.05Z"/>
  <path d="M115.81,109.79c-1.38.14-2.82-.23-3.96-1.02-.38.83-.47,1.8-.24,2.68.12.45.43.96.9.94.73-.03.81-1.17,1.43-1.56.37-.23.85-.15,1.27-.24s.85-.59.57-.92"/>
  <path d="M79.13,119.34c-.39.9-.43,1.92-.84,2.8-.95,2.05-4.47,4.37-1.51,6.49,1.94,1.39,3.47.09,4.33-1.71,1.13-2.37,1.34-5.29,1.92-7.82.81-3.57-2.95-1.91-3.89.24Z"/>
  <path d="M117.25,113.05c-.41.17-.84.35-1.12.69s-.33.91,0,1.21c.18.16.44.2.68.24,1.55.24,3.1.48,4.65.73.26.04.56.07.77-.09.22-.17.25-.48.27-.76.06-1.24.13-2.47.19-3.71.03-.57.05-1.17-.19-1.69-.5-1.08-2.07-1.35-3.09-.72s-1.51,1.87-1.56,3.07c-.47,0-.93.01-1.4.02"/>
  <path d="M85.89,82.67c1.62-1.86,4.58-9.57-.82-7.71s.91,7.61.82,7.71Z"/>
  <path d="M120.95,118.09c-.37.37-.51.91-.63,1.43-.15.65-.31,1.31-.33,1.97,0,.25,0,.5.04.75.13.91.7,1.81,1.58,2.08.51.15,1.05.07,1.56-.09,5.17-1.61.69-9.08-2.22-6.14Z"/>
  <path d="M208.83,108.38c-.86.14-1.51.91-1.74,1.74s-.14,1.72-.01,2.58c.38,2.53,1.05,5.02,1.99,7.39.32-1.23.66-2.51,1.44-3.51.19-.24.41-.47.56-.74.27-.49.27-1.09.24-1.65-.13-2.27,1.95-6.53-2.47-5.82Z"/>
  <path d="M337.53,121.82c-.29-.79.29-1.85,1.12-1.8.34.02.65.2.91.42.92.77,1.34,1.96,1.86,3.04s1.29,2.19,2.46,2.44c.45.1.92.06,1.37.13s.93.32,1.08.75c.21.62-.36,1.26-.99,1.43s-1.29.04-1.94.04c-.45,0-.92.06-1.35-.07-.45-.14-.81-.47-1.13-.82-1.19-1.28-2.09-2.83-2.58-4.51"/>
  <path d="M346.83,125.59c.04.2.04.42-.06.61-.16.29-.51.41-.83.49-.99.24-2.03.31-3.04.22-.12-.01-.25-.03-.36-.09-.11-.06-.19-.16-.26-.26-.55-.71-3.88-6.08-.95-5.23,1.09.31,2.11,1.42,3.06,2s2.21,1.09,2.44,2.26Z"/>
</svg>